<?xml version="1.0" encoding="utf-8"?>
<!-- Generator: Adobe Illustrator 19.0.0, SVG Export Plug-In . SVG Version: 6.00 Build 0)  -->
<svg version="1.1" id="Calque_1" xmlns="http://www.w3.org/2000/svg" xmlns:xlink="http://www.w3.org/1999/xlink" x="0px" y="0px"
	 viewBox="0 0 25 25" style="enable-background:new 0 0 25 25;" xml:space="preserve">
<style type="text/css">
	.st0{fill:#43264E;}
</style>
<g id="XMLID_5_">
	<path id="XMLID_6_" class="st0" d="M12.5,0C7.4,0,3.4,4.1,3.4,9.2c0,1.3,0.3,2.6,0.8,3.8c2.3,5,6.7,10.3,8,11.8
		c0.1,0.1,0.2,0.2,0.4,0.2c0.1,0,0.3-0.1,0.4-0.2c1.3-1.5,5.7-6.8,8-11.8c0.5-1.2,0.8-2.4,0.8-3.8C21.6,4.1,17.6,0,12.5,0L12.5,0z
		 M12.5,13.9c-2.6,0-4.8-2.1-4.8-4.8c0-2.6,2.1-4.8,4.8-4.8c2.6,0,4.8,2.1,4.8,4.8C17.3,11.8,15.1,13.9,12.5,13.9L12.5,13.9z"/>
</g>
</svg>
