<?xml version="1.0" encoding="utf-8"?>
<!-- Generator: Adobe Illustrator 19.0.0, SVG Export Plug-In . SVG Version: 6.00 Build 0)  -->
<svg version="1.1" id="Calque_1" xmlns="http://www.w3.org/2000/svg" xmlns:xlink="http://www.w3.org/1999/xlink" x="0px" y="0px"
	 viewBox="0 0 35 35" style="enable-background:new 0 0 35 35;" xml:space="preserve">
<style type="text/css">
	.st0{fill:none;stroke:#B7B7B7;stroke-width:2;stroke-miterlimit:10;}
	.st1{fill:#FFFFFF;stroke:#B7B7B7;stroke-width:2;stroke-miterlimit:10;}
</style>
<g id="XMLID_1_">
	<path id="XMLID_6_" class="st0" d="M8.1,30.8h18.7c0.5,0,1-0.4,1.1-0.9L30.8,14c0.1-0.7-0.4-1.3-1.1-1.3H5.3
		c-0.7,0-1.2,0.6-1.1,1.3l2.8,15.9C7.2,30.4,7.6,30.8,8.1,30.8z"/>
	<line id="XMLID_5_" class="st0" x1="11.7" y1="12.7" x2="11.7" y2="30.8"/>
	<line id="XMLID_3_" class="st0" x1="23.3" y1="12.7" x2="23.3" y2="30.8"/>
	<line id="XMLID_7_" class="st0" x1="17.5" y1="12.7" x2="17.5" y2="30.8"/>
	<path id="XMLID_10_" class="st0" d="M9.3,12.7v-6c0-0.6,0.5-1.1,1.1-1.1h14.2c0.6,0,1.1,0.5,1.1,1.1v6"/>
	<path id="XMLID_9_" class="st1" d="M19.4,6.8h-3.7c-0.7,0-1.3-0.6-1.3-1.3v0c0-0.7,0.6-1.3,1.3-1.3h3.7c0.7,0,1.3,0.6,1.3,1.3v0
		C20.7,6.2,20.1,6.8,19.4,6.8z"/>
</g>
</svg>
