<?xml version="1.0" encoding="utf-8"?>
<!-- Generator: Adobe Illustrator 19.0.0, SVG Export Plug-In . SVG Version: 6.00 Build 0)  -->
<svg version="1.1" id="Calque_1" xmlns="http://www.w3.org/2000/svg" xmlns:xlink="http://www.w3.org/1999/xlink" x="0px" y="0px"
	 viewBox="0 0 35 35" style="enable-background:new 0 0 35 35;" xml:space="preserve">
<style type="text/css">
	.st0{fill:#B7B7B7;}
</style>
<g id="XMLID_69_">
	<path id="XMLID_76_" class="st0" d="M31.9,5.1H3.1C1.5,5.1,0,6.5,0,8.2v18.5c0,1.6,1.4,3.1,3.1,3.1h28.8c1.6,0,3.1-1.4,3.1-3.1V8.2
		C35,6.5,33.5,5.1,31.9,5.1L31.9,5.1z M3.1,7.1h28.8c0.6,0,1,0.4,1,1v1.6H2.1V8.2C2.1,7.5,2.5,7.1,3.1,7.1L3.1,7.1z M32.9,11.9v1.6
		H2.1v-1.6H32.9z M31.9,27.7H3.1c-0.6,0-1-0.4-1-1V15.6h30.9v11.1C32.9,27.3,32.5,27.7,31.9,27.7L31.9,27.7z M31.9,27.7"/>
	<path id="XMLID_73_" class="st0" d="M5.4,20.3h5.4c0.6,0,1-0.4,1-1c0-0.6-0.4-1-1-1H5.4c-0.6,0-1,0.4-1,1
		C4.3,19.9,4.7,20.3,5.4,20.3L5.4,20.3z M5.4,20.3"/>
	<path id="XMLID_70_" class="st0" d="M17.9,22.6H5.4c-0.6,0-1,0.4-1,1c0,0.6,0.4,1,1,1h12.6c0.4,0,1-0.4,1-1
		C18.9,23,18.5,22.6,17.9,22.6L17.9,22.6z M17.9,22.6"/>
</g>
</svg>
