<?xml version="1.0" encoding="utf-8"?>
<!-- Generator: Adobe Illustrator 19.0.0, SVG Export Plug-In . SVG Version: 6.00 Build 0)  -->
<svg version="1.1" id="Calque_1" xmlns="http://www.w3.org/2000/svg" xmlns:xlink="http://www.w3.org/1999/xlink" x="0px" y="0px"
	 viewBox="0 0 509 377" style="enable-background:new 0 0 509 377;" xml:space="preserve">
<style type="text/css">
	.st0{fill:none;stroke:url(#XMLID_2_);stroke-width:1.4852;stroke-miterlimit:10;}
	.st1{fill:url(#XMLID_3_);}
	.st2{fill:none;stroke:url(#XMLID_4_);stroke-width:2.9705;stroke-miterlimit:10;}
	.st3{fill:none;stroke:url(#XMLID_5_);stroke-width:2.9705;stroke-miterlimit:10;}
	.st4{fill:none;stroke:url(#XMLID_6_);stroke-width:2.9705;stroke-miterlimit:10;}
</style>
<linearGradient id="XMLID_2_" gradientUnits="userSpaceOnUse" x1="154.4167" y1="198.9242" x2="326.2974" y2="198.9242">
	<stop  offset="0" style="stop-color:#3C275A"/>
	<stop  offset="7.735384e-02" style="stop-color:#4A275A"/>
	<stop  offset="0.3778" style="stop-color:#7A2559"/>
	<stop  offset="0.6426" style="stop-color:#9D2458"/>
	<stop  offset="0.859" style="stop-color:#B22358"/>
	<stop  offset="1" style="stop-color:#BA2358"/>
</linearGradient>
<path id="XMLID_149_" class="st0" d="M319.9,272.1c-17.5,15.8-40.7,25.5-66.1,25.5c-54.5,0-98.6-44.2-98.6-98.6s44.2-98.6,98.6-98.6
	c28.4,0,54,12,72,31.2"/>
<linearGradient id="XMLID_3_" gradientUnits="userSpaceOnUse" x1="169.3952" y1="187.2151" x2="395.5472" y2="187.2151">
	<stop  offset="0" style="stop-color:#3C275A"/>
	<stop  offset="7.735384e-02" style="stop-color:#4A275A"/>
	<stop  offset="0.3778" style="stop-color:#7A2559"/>
	<stop  offset="0.6426" style="stop-color:#9D2458"/>
	<stop  offset="0.859" style="stop-color:#B22358"/>
	<stop  offset="1" style="stop-color:#BA2358"/>
</linearGradient>
<path id="XMLID_30_" class="st1" d="M210.6,145.7c0.1,0.1,0.2,0.3,0.2,0.5c0,0.2-0.1,0.4-0.2,0.5c-0.1,0.1-0.3,0.2-0.5,0.2h-8.6
	c-0.2,0-0.4-0.1-0.5-0.2c-0.1-0.1-0.2-0.3-0.2-0.5v-15.5c0-0.2,0.1-0.4,0.2-0.5c0.1-0.1,0.3-0.2,0.6-0.2c0.2,0,0.4,0.1,0.5,0.2
	c0.1,0.1,0.2,0.3,0.2,0.5v14.8h7.8C210.3,145.5,210.5,145.5,210.6,145.7z M225,134.8c0.1,0.1,0.2,0.3,0.2,0.5v10.9
	c0,0.2-0.1,0.4-0.2,0.5c-0.1,0.1-0.3,0.2-0.5,0.2c-0.2,0-0.4-0.1-0.5-0.2c-0.1-0.1-0.2-0.3-0.2-0.5v-1.6c-0.4,0.7-1,1.3-1.8,1.8
	c-0.8,0.5-1.7,0.7-2.6,0.7c-1.1,0-2-0.3-2.9-0.8c-0.9-0.6-1.5-1.3-2-2.3c-0.5-1-0.7-2.1-0.7-3.3s0.2-2.3,0.7-3.3
	c0.5-1,1.2-1.7,2-2.3c0.9-0.5,1.8-0.8,2.9-0.8c1,0,1.9,0.2,2.7,0.7c0.8,0.5,1.4,1.1,1.8,1.8v-1.5c0-0.2,0.1-0.4,0.2-0.5
	c0.1-0.1,0.3-0.2,0.5-0.2C224.7,134.5,224.9,134.6,225,134.8z M221.7,145.1c0.7-0.4,1.2-1.1,1.6-1.8c0.4-0.8,0.6-1.7,0.6-2.6
	c0-0.9-0.2-1.8-0.6-2.6c-0.4-0.8-0.9-1.4-1.6-1.8c-0.7-0.4-1.4-0.7-2.3-0.7c-0.8,0-1.6,0.2-2.3,0.7c-0.7,0.4-1.2,1-1.6,1.8
	c-0.4,0.8-0.6,1.6-0.6,2.6c0,1,0.2,1.8,0.6,2.6c0.4,0.8,0.9,1.4,1.6,1.8c0.7,0.4,1.4,0.7,2.3,0.7
	C220.3,145.8,221.1,145.6,221.7,145.1z M216.1,157.3c1.2,0.8,2.1,1.8,2.9,3.1c0.7,1.3,1.1,2.7,1.1,4.3c0,1.6-0.4,3-1.1,4.3
	c-0.7,1.3-1.7,2.4-2.9,3.2c-1.2,0.8-2.5,1.2-3.9,1.2h-7.5v8.8c0,0.5-0.2,1-0.5,1.4c-0.3,0.4-0.8,0.6-1.3,0.6c-0.6,0-1-0.2-1.3-0.5
	c-0.3-0.4-0.5-0.8-0.5-1.4v-24.1c0-0.5,0.2-1,0.6-1.4c0.4-0.4,0.8-0.6,1.4-0.6h9.3C213.6,156.2,214.9,156.5,216.1,157.3z M214.1,169
	c0.6-0.5,1.1-1.1,1.5-1.9c0.4-0.8,0.5-1.6,0.5-2.5c0-1.4-0.4-2.5-1.2-3.4c-0.8-0.9-1.7-1.4-2.8-1.4h-7.5v9.9h7.5
	C212.9,169.7,213.5,169.5,214.1,169z M243.7,180.9c0.4,0.3,0.5,0.8,0.5,1.4c0,0.5-0.2,1-0.5,1.3c-0.4,0.3-0.8,0.5-1.4,0.5h-13.5
	c-0.6,0-1-0.2-1.4-0.6c-0.4-0.4-0.5-0.8-0.5-1.4v-24.1c0-0.5,0.2-1,0.6-1.4c0.4-0.4,0.8-0.6,1.4-0.6c0.5,0,1,0.2,1.4,0.6
	c0.4,0.4,0.6,0.8,0.6,1.4v22.3h11.4C242.9,180.4,243.3,180.5,243.7,180.9z M272.4,182.4c0,0.5-0.2,1-0.5,1.3
	c-0.4,0.3-0.8,0.5-1.3,0.5c-0.4,0-0.7-0.1-1-0.3c-0.3-0.2-0.6-0.5-0.7-0.9l-2.5-5.9h-12.3l-2.4,5.9c-0.1,0.4-0.4,0.7-0.7,0.9
	c-0.3,0.2-0.6,0.3-1,0.3c-0.6,0-1-0.1-1.3-0.4c-0.3-0.3-0.4-0.7-0.4-1.2c0-0.1,0-0.3,0.1-0.6l10.2-24.6c0.2-0.4,0.4-0.7,0.8-1
	c0.3-0.2,0.7-0.3,1.1-0.3c0.4,0,0.8,0.1,1.1,0.3c0.3,0.2,0.5,0.5,0.7,0.9l10.1,24.3C272.4,181.8,272.4,182.1,272.4,182.4z
	 M255.6,173.4h9.3l-4.7-11.2L255.6,173.4z M299.1,159.4c0,0.5-0.2,0.9-0.5,1.3c-0.3,0.4-0.8,0.6-1.3,0.6c-0.4,0-0.7-0.1-1.1-0.3
	c-1.6-0.9-3.4-1.4-5.3-1.4c-2,0-3.8,0.4-5.3,1.3c-1.5,0.9-2.7,2.1-3.6,3.7c-0.9,1.6-1.3,3.4-1.3,5.4c0,2.2,0.4,4.1,1.3,5.7
	c0.9,1.6,2.1,2.8,3.6,3.6c1.5,0.8,3.3,1.3,5.2,1.3c2,0,3.7-0.5,5.3-1.4c0.3-0.2,0.7-0.2,1-0.2c0.6,0,1.1,0.2,1.4,0.7
	c0.3,0.4,0.5,0.8,0.5,1.3c0,0.3-0.1,0.6-0.3,0.9c-0.2,0.3-0.4,0.5-0.7,0.7c-1,0.6-2.2,1.1-3.5,1.4c-1.3,0.3-2.6,0.5-3.8,0.5
	c-2.6,0-5-0.6-7.1-1.7c-2.2-1.1-3.9-2.8-5.2-5s-1.9-4.7-1.9-7.7c0-2.7,0.6-5.1,1.9-7.3c1.2-2.2,2.9-3.9,5.1-5.1
	c2.2-1.2,4.6-1.9,7.3-1.9c2.6,0,5,0.6,7.3,1.9C298.8,158.1,299.1,158.7,299.1,159.4z M322.8,181c0.4,0.4,0.5,0.8,0.5,1.3
	c0,0.5-0.2,1-0.5,1.3c-0.4,0.3-0.8,0.5-1.4,0.5h-13.9c-0.5,0-1-0.2-1.4-0.6c-0.4-0.4-0.6-0.8-0.6-1.4v-24.1c0-0.5,0.2-1,0.6-1.4
	c0.4-0.4,0.8-0.6,1.4-0.6h13.9c0.6,0,1,0.2,1.4,0.5c0.4,0.3,0.5,0.8,0.5,1.4c0,0.5-0.2,1-0.5,1.3c-0.4,0.3-0.8,0.5-1.4,0.5h-11.8
	v8.1h10c0.6,0,1,0.2,1.4,0.5c0.4,0.3,0.5,0.8,0.5,1.3c0,0.6-0.2,1-0.5,1.3c-0.4,0.3-0.8,0.5-1.4,0.5h-10v8.8h11.8
	C322,180.4,322.5,180.6,322.8,181z M342.9,166.4c0.1,0.1,0.2,0.3,0.2,0.5v16.4c0,0.2-0.1,0.4-0.2,0.5c-0.1,0.1-0.3,0.2-0.5,0.2
	s-0.4-0.1-0.5-0.2c-0.1-0.1-0.2-0.3-0.2-0.5v-1.7c-0.4,0.7-1,1.4-1.8,1.9c-0.8,0.5-1.7,0.8-2.6,0.8c-1.1,0-2-0.3-2.9-0.8
	c-0.9-0.6-1.5-1.3-2-2.3c-0.5-1-0.7-2.1-0.7-3.3c0-1.2,0.2-2.3,0.7-3.3c0.5-1,1.2-1.8,2-2.3c0.9-0.6,1.8-0.8,2.9-0.8
	c1,0,1.8,0.2,2.6,0.7c0.8,0.5,1.4,1.1,1.8,1.8v-7.1c0-0.2,0.1-0.4,0.2-0.5c0.1-0.1,0.3-0.2,0.5-0.2S342.8,166.3,342.9,166.4z
	 M339.7,182.3c0.7-0.4,1.2-1,1.6-1.8c0.4-0.8,0.6-1.7,0.6-2.6c0-1-0.2-1.8-0.6-2.6c-0.4-0.8-0.9-1.4-1.6-1.8
	c-0.7-0.4-1.4-0.7-2.3-0.7c-0.8,0-1.6,0.2-2.3,0.7c-0.7,0.4-1.2,1.1-1.6,1.8c-0.4,0.8-0.6,1.6-0.6,2.6c0,1,0.2,1.8,0.6,2.6
	c0.4,0.8,0.9,1.4,1.6,1.8c0.7,0.4,1.4,0.7,2.3,0.7C338.2,183,339,182.7,339.7,182.3z M358.3,172c0.1,0.1,0.2,0.3,0.2,0.5v6.8
	c0,1.6-0.4,2.8-1.3,3.6s-2.1,1.3-3.7,1.3c-1.5,0-2.8-0.4-3.6-1.3c-0.9-0.8-1.3-2.1-1.3-3.6v-6.8c0-0.2,0.1-0.4,0.2-0.5
	c0.1-0.1,0.3-0.2,0.5-0.2s0.4,0.1,0.5,0.2c0.1,0.1,0.2,0.3,0.2,0.5v6.8c0,1.2,0.3,2,0.9,2.6c0.6,0.6,1.5,0.9,2.6,0.9
	c1.1,0,2-0.3,2.6-0.9c0.6-0.6,0.9-1.5,0.9-2.6v-6.8c0-0.2,0.1-0.4,0.2-0.5c0.1-0.1,0.3-0.2,0.5-0.2C358,171.8,358.2,171.9,358.3,172
	z M290.1,244c-0.1-0.2-0.2-0.4-0.2-0.7v-0.5c0-0.3,0.1-0.5,0.2-0.7s0.4-0.2,0.6-0.2h0.2c0.3,0,0.5,0.1,0.6,0.2
	c0.1,0.2,0.2,0.4,0.2,0.7v0.5c0,0.3-0.1,0.5-0.2,0.7c-0.1,0.2-0.4,0.3-0.6,0.3h-0.2C290.5,244.2,290.2,244.1,290.1,244z
	 M303.6,231.8c0.7,0.2,1.2,0.4,1.6,0.7c0.4,0.3,0.6,0.6,0.6,0.9c0,0.2-0.1,0.3-0.2,0.5c-0.1,0.1-0.3,0.2-0.4,0.2
	c-0.2,0-0.3,0-0.4-0.1c-0.1-0.1-0.2-0.2-0.4-0.3c-0.2-0.2-0.4-0.4-0.6-0.5c-0.2-0.1-0.6-0.2-1-0.3c-0.4-0.1-0.8-0.1-1.3-0.1
	c-0.9,0-1.7,0.2-2.4,0.7c-0.7,0.5-1.3,1.1-1.7,1.8c-0.4,0.8-0.6,1.6-0.6,2.6c0,1,0.2,1.8,0.6,2.6c0.4,0.8,1,1.4,1.7,1.8
	c0.7,0.4,1.5,0.7,2.5,0.7c0.6,0,1,0,1.4-0.1c0.3-0.1,0.7-0.2,1-0.4c0.1-0.1,0.3-0.2,0.6-0.4c0.1-0.1,0.2-0.2,0.3-0.3
	c0.1-0.1,0.2-0.1,0.3-0.1c0.2,0,0.3,0.1,0.5,0.2c0.1,0.1,0.2,0.3,0.2,0.5c0,0.3-0.2,0.6-0.6,0.9c-0.4,0.3-0.9,0.6-1.6,0.8
	c-0.7,0.2-1.4,0.3-2.2,0.3c-1.2,0-2.2-0.3-3.1-0.8c-0.9-0.6-1.6-1.3-2.1-2.3c-0.5-1-0.8-2.1-0.8-3.3c0-1.2,0.3-2.3,0.8-3.2
	c0.5-1,1.2-1.8,2.2-2.3c0.9-0.6,2-0.9,3.2-0.9C302.2,231.6,302.9,231.7,303.6,231.8z M320.4,241.3c-0.5,1-1.3,1.8-2.2,2.3
	c-0.9,0.6-2,0.8-3.1,0.8c-1.1,0-2.2-0.3-3.1-0.8c-0.9-0.6-1.7-1.3-2.2-2.3c-0.5-1-0.8-2.1-0.8-3.3c0-1.2,0.3-2.3,0.8-3.3
	c0.5-1,1.3-1.8,2.2-2.3c0.9-0.6,2-0.8,3.1-0.8c1.1,0,2.2,0.3,3.1,0.8c0.9,0.6,1.7,1.3,2.2,2.3c0.5,1,0.8,2.1,0.8,3.3
	C321.2,239.2,320.9,240.3,320.4,241.3z M319.1,235.4c-0.4-0.8-1-1.4-1.7-1.8c-0.7-0.4-1.5-0.7-2.4-0.7c-0.9,0-1.7,0.2-2.4,0.7
	c-0.7,0.4-1.3,1.1-1.7,1.8c-0.4,0.8-0.6,1.6-0.6,2.6c0,1,0.2,1.8,0.6,2.6c0.4,0.8,1,1.4,1.7,1.8c0.7,0.4,1.5,0.7,2.4,0.7
	c0.9,0,1.7-0.2,2.4-0.7c0.7-0.4,1.3-1,1.7-1.8c0.4-0.8,0.6-1.6,0.6-2.6C319.7,237.1,319.5,236.2,319.1,235.4z M342.6,233.1
	c0.7,0.9,1,2.1,1,3.5v6.8c0,0.2-0.1,0.4-0.2,0.5c-0.1,0.1-0.3,0.2-0.5,0.2c-0.2,0-0.4-0.1-0.5-0.2c-0.1-0.1-0.2-0.3-0.2-0.5v-6.8
	c0-1.1-0.3-1.9-0.8-2.6c-0.5-0.7-1.3-1-2.4-1c-0.7,0-1.3,0.2-1.9,0.5c-0.6,0.3-1.1,0.8-1.5,1.3c-0.4,0.6-0.6,1.2-0.6,1.8v6.8
	c0,0.2-0.1,0.4-0.2,0.5c-0.1,0.1-0.3,0.2-0.5,0.2c-0.2,0-0.4-0.1-0.5-0.2c-0.1-0.1-0.2-0.3-0.2-0.5v-6.8c0-1-0.2-1.9-0.7-2.5
	c-0.5-0.7-1.2-1-2.3-1c-0.7,0-1.3,0.2-1.9,0.5c-0.6,0.3-1.1,0.8-1.4,1.3s-0.5,1.1-0.5,1.8v6.8c0,0.2-0.1,0.4-0.2,0.5
	c-0.1,0.1-0.3,0.2-0.5,0.2s-0.4-0.1-0.5-0.2c-0.1-0.1-0.2-0.3-0.2-0.5v-10.8c0-0.2,0.1-0.4,0.2-0.5c0.1-0.1,0.3-0.2,0.5-0.2
	s0.4,0.1,0.5,0.2c0.1,0.1,0.2,0.3,0.2,0.5v1.4c0.4-0.7,1-1.2,1.8-1.6c0.7-0.4,1.5-0.7,2.3-0.7c0.9,0,1.7,0.2,2.4,0.7
	c0.7,0.5,1.2,1.1,1.5,2c0.3-0.7,1-1.3,1.9-1.9c0.9-0.5,1.8-0.8,2.7-0.8C340.8,231.8,341.9,232.2,342.6,233.1z M174.5,221.1
	c-1.5-0.5-2.9-1.4-4.3-2.7c-0.6-0.5-0.8-1-0.8-1.6c0-0.5,0.2-0.9,0.6-1.3c0.4-0.4,0.8-0.6,1.3-0.6c0.5,0,0.8,0.1,1.2,0.4
	c1.1,1,2.2,1.7,3.3,2.2c1.1,0.5,2.4,0.7,3.8,0.7c1.7,0,3.1-0.4,4.2-1.2c1.2-0.8,1.7-1.7,1.7-2.9c0-1.4-0.6-2.5-1.7-3.2
	c-1.1-0.8-2.9-1.4-5.2-1.9c-2.7-0.6-4.8-1.5-6.3-2.8c-1.5-1.3-2.2-3-2.2-5.3c0-1.6,0.4-2.9,1.2-4.1c0.8-1.2,2-2.1,3.4-2.7
	c1.5-0.6,3.1-1,4.9-1c1.6,0,3.2,0.3,4.7,0.8c1.5,0.5,2.6,1.2,3.5,2.1c0.6,0.5,0.9,1.1,0.9,1.7c0,0.5-0.2,0.9-0.5,1.3
	c-0.4,0.4-0.8,0.6-1.3,0.6c-0.4,0-0.7-0.1-0.9-0.3c-0.7-0.7-1.6-1.3-2.9-1.8c-1.2-0.5-2.4-0.7-3.5-0.7c-1.8,0-3.2,0.4-4.2,1.1
	c-1.1,0.7-1.6,1.7-1.6,2.9c0,1.3,0.5,2.3,1.6,3c1.1,0.7,2.6,1.3,4.7,1.8c2.1,0.5,3.8,1,5.1,1.6c1.3,0.6,2.3,1.5,3.1,2.6
	c0.7,1.1,1.1,2.5,1.1,4.3c0,1.5-0.4,2.9-1.3,4.1c-0.9,1.2-2,2.1-3.5,2.8c-1.5,0.7-3.1,1-4.9,1C177.7,221.9,176,221.7,174.5,221.1z
	 M211.5,194.8c1.2,0.8,2.1,1.8,2.9,3.1c0.7,1.3,1.1,2.7,1.1,4.3c0,1.6-0.4,3-1.1,4.3c-0.7,1.3-1.7,2.4-2.9,3.2
	c-1.2,0.8-2.5,1.2-3.9,1.2h-7.5v8.8c0,0.5-0.2,1-0.5,1.4c-0.3,0.4-0.8,0.6-1.3,0.6c-0.6,0-1-0.2-1.3-0.5c-0.3-0.4-0.5-0.8-0.5-1.4
	v-24.1c0-0.5,0.2-1,0.6-1.4c0.4-0.4,0.8-0.6,1.4-0.6h9.3C209,193.6,210.3,194,211.5,194.8z M209.6,206.5c0.6-0.5,1.1-1.1,1.5-1.9
	c0.4-0.8,0.5-1.6,0.5-2.5c0-1.4-0.4-2.5-1.2-3.4c-0.8-0.9-1.7-1.4-2.8-1.4h-7.5v9.9h7.5C208.3,207.2,208.9,207,209.6,206.5z
	 M239.5,218.4c0.4,0.4,0.5,0.8,0.5,1.3c0,0.5-0.2,1-0.5,1.3c-0.4,0.3-0.8,0.5-1.4,0.5h-13.9c-0.5,0-1-0.2-1.4-0.6
	c-0.4-0.4-0.6-0.8-0.6-1.4v-24.1c0-0.5,0.2-1,0.6-1.4c0.4-0.4,0.8-0.6,1.4-0.6h13.9c0.6,0,1,0.2,1.4,0.5c0.4,0.3,0.5,0.8,0.5,1.4
	c0,0.5-0.2,1-0.5,1.3c-0.4,0.3-0.8,0.5-1.4,0.5h-11.8v8.1h10c0.6,0,1,0.2,1.4,0.5c0.4,0.3,0.5,0.8,0.5,1.3c0,0.6-0.2,1-0.5,1.3
	c-0.4,0.3-0.8,0.5-1.4,0.5h-10v8.8h11.8C238.7,217.9,239.1,218.1,239.5,218.4z M267.9,196.9c0,0.5-0.2,0.9-0.5,1.3
	c-0.3,0.4-0.8,0.6-1.3,0.6c-0.4,0-0.7-0.1-1.1-0.3c-1.6-0.9-3.4-1.4-5.3-1.4c-2,0-3.8,0.4-5.3,1.3c-1.5,0.9-2.7,2.1-3.6,3.7
	c-0.9,1.6-1.3,3.4-1.3,5.4c0,2.2,0.4,4.1,1.3,5.7c0.9,1.6,2.1,2.8,3.6,3.6c1.5,0.8,3.3,1.3,5.2,1.3c2,0,3.7-0.5,5.3-1.4
	c0.3-0.2,0.7-0.2,1-0.2c0.6,0,1.1,0.2,1.4,0.7c0.3,0.4,0.5,0.8,0.5,1.3c0,0.3-0.1,0.6-0.3,0.9c-0.2,0.3-0.4,0.5-0.7,0.7
	c-1,0.6-2.2,1.1-3.5,1.4c-1.3,0.3-2.6,0.5-3.8,0.5c-2.6,0-5-0.6-7.1-1.7c-2.2-1.1-3.9-2.8-5.2-5c-1.3-2.2-1.9-4.7-1.9-7.7
	c0-2.7,0.6-5.1,1.9-7.3c1.2-2.2,2.9-3.9,5.1-5.1c2.2-1.2,4.6-1.9,7.3-1.9c2.6,0,5,0.6,7.3,1.9C267.6,195.6,267.9,196.1,267.9,196.9z
	 M294,194.1c0.4,0.3,0.5,0.8,0.5,1.3s-0.2,1-0.5,1.3c-0.4,0.3-0.8,0.5-1.4,0.5h-7.1v22.4c0,0.5-0.2,1-0.6,1.4
	c-0.4,0.4-0.9,0.6-1.5,0.6c-0.6,0-1.1-0.2-1.5-0.6c-0.4-0.4-0.6-0.8-0.6-1.4v-22.4h-7.1c-0.6,0-1-0.2-1.4-0.5
	c-0.4-0.3-0.5-0.8-0.5-1.3c0-0.5,0.2-1,0.5-1.3c0.4-0.3,0.8-0.5,1.4-0.5h18.2C293.1,193.6,293.6,193.8,294,194.1z M320.7,219.8
	c0,0.5-0.2,1-0.5,1.3c-0.4,0.3-0.8,0.5-1.3,0.5c-0.4,0-0.7-0.1-1-0.3c-0.3-0.2-0.6-0.5-0.7-0.9l-2.5-5.9h-12.3l-2.4,5.9
	c-0.1,0.4-0.4,0.7-0.7,0.9c-0.3,0.2-0.6,0.3-1,0.3c-0.6,0-1-0.1-1.3-0.4c-0.3-0.3-0.4-0.7-0.4-1.2c0-0.1,0-0.3,0.1-0.6l10.2-24.6
	c0.2-0.4,0.4-0.7,0.8-1c0.3-0.2,0.7-0.3,1.1-0.3c0.4,0,0.8,0.1,1.1,0.3s0.5,0.5,0.7,0.9l10.1,24.3
	C320.6,219.3,320.7,219.6,320.7,219.8z M303.8,210.9h9.3l-4.7-11.2L303.8,210.9z M347.3,196.9c0,0.5-0.2,0.9-0.5,1.3
	c-0.3,0.4-0.8,0.6-1.3,0.6c-0.4,0-0.7-0.1-1.1-0.3c-1.6-0.9-3.4-1.4-5.3-1.4c-2,0-3.8,0.4-5.3,1.3s-2.7,2.1-3.6,3.7
	c-0.9,1.6-1.3,3.4-1.3,5.4c0,2.2,0.4,4.1,1.3,5.7c0.9,1.6,2.1,2.8,3.6,3.6c1.5,0.8,3.3,1.3,5.2,1.3c2,0,3.7-0.5,5.3-1.4
	c0.3-0.2,0.7-0.2,1-0.2c0.6,0,1.1,0.2,1.4,0.7c0.3,0.4,0.5,0.8,0.5,1.3c0,0.3-0.1,0.6-0.3,0.9c-0.2,0.3-0.4,0.5-0.7,0.7
	c-1,0.6-2.2,1.1-3.5,1.4c-1.3,0.3-2.6,0.5-3.8,0.5c-2.6,0-5-0.6-7.1-1.7s-3.9-2.8-5.2-5c-1.3-2.2-1.9-4.7-1.9-7.7
	c0-2.7,0.6-5.1,1.9-7.3c1.2-2.2,2.9-3.9,5.1-5.1c2.2-1.2,4.6-1.9,7.3-1.9c2.6,0,5,0.6,7.3,1.9C347,195.6,347.3,196.1,347.3,196.9z
	 M370.7,218.4c0.4,0.3,0.5,0.8,0.5,1.4c0,0.5-0.2,1-0.5,1.3c-0.4,0.3-0.8,0.5-1.4,0.5h-13.5c-0.6,0-1-0.2-1.4-0.6
	c-0.4-0.4-0.5-0.8-0.5-1.4v-24.1c0-0.5,0.2-1,0.6-1.4c0.4-0.4,0.8-0.6,1.4-0.6c0.5,0,1,0.2,1.4,0.6c0.4,0.4,0.6,0.8,0.6,1.4v22.3
	h11.4C369.9,217.8,370.3,218,370.7,218.4z M395,218.4c0.4,0.4,0.5,0.8,0.5,1.3c0,0.5-0.2,1-0.5,1.3c-0.4,0.3-0.8,0.5-1.4,0.5h-13.9
	c-0.5,0-1-0.2-1.4-0.6c-0.4-0.4-0.6-0.8-0.6-1.4v-24.1c0-0.5,0.2-1,0.6-1.4c0.4-0.4,0.8-0.6,1.4-0.6h13.9c0.6,0,1,0.2,1.4,0.5
	c0.4,0.3,0.5,0.8,0.5,1.4c0,0.5-0.2,1-0.5,1.3c-0.4,0.3-0.8,0.5-1.4,0.5h-11.8v8.1h10c0.6,0,1,0.2,1.4,0.5c0.4,0.3,0.5,0.8,0.5,1.3
	c0,0.6-0.2,1-0.5,1.3c-0.4,0.3-0.8,0.5-1.4,0.5h-10v8.8h11.8C394.2,217.9,394.6,218.1,395,218.4z"/>
<linearGradient id="XMLID_4_" gradientUnits="userSpaceOnUse" x1="146.8634" y1="152.672" x2="146.8634" y2="152.672">
	<stop  offset="0" style="stop-color:#3C275A"/>
	<stop  offset="7.735384e-02" style="stop-color:#4A275A"/>
	<stop  offset="0.3778" style="stop-color:#7A2559"/>
	<stop  offset="0.6426" style="stop-color:#9D2458"/>
	<stop  offset="0.859" style="stop-color:#B22358"/>
	<stop  offset="1" style="stop-color:#BA2358"/>
</linearGradient>
<path id="XMLID_29_" class="st2" d="M146.9,152.7"/>
<linearGradient id="XMLID_5_" gradientUnits="userSpaceOnUse" x1="355.5801" y1="252.9148" x2="355.5801" y2="252.9148">
	<stop  offset="0" style="stop-color:#3C275A"/>
	<stop  offset="7.735384e-02" style="stop-color:#4A275A"/>
	<stop  offset="0.3778" style="stop-color:#7A2559"/>
	<stop  offset="0.6426" style="stop-color:#9D2458"/>
	<stop  offset="0.859" style="stop-color:#B22358"/>
	<stop  offset="1" style="stop-color:#BA2358"/>
</linearGradient>
<path id="XMLID_28_" class="st3" d="M355.6,252.9"/>
<linearGradient id="XMLID_6_" gradientUnits="userSpaceOnUse" x1="0.2395" y1="188.4932" x2="508.6739" y2="188.4932">
	<stop  offset="0" style="stop-color:#3C275A"/>
	<stop  offset="7.735384e-02" style="stop-color:#4A275A"/>
	<stop  offset="0.3778" style="stop-color:#7A2559"/>
	<stop  offset="0.6426" style="stop-color:#9D2458"/>
	<stop  offset="0.859" style="stop-color:#B22358"/>
	<stop  offset="1" style="stop-color:#BA2358"/>
</linearGradient>
<path id="XMLID_10_" class="st4" d="M359.6,244.6c-17.7,40.9-58.4,69.5-105.8,69.5c-63.6,0-115.2-51.6-115.2-115.2
	c0-16.5,3.4-32.1,9.7-46.3c17.8-40.6,58.4-68.9,105.5-68.9c27.2,0,52.3,9.4,72,25.2 M83.6,120.4l63.3,32.3 M146.9,152.7 M83.6,120.4
	 M331.2,53.6l-20.8,45.3 M200.8,332.8l11.5-26.2 M356,253.3l74.3,32.3 M0.9,78.3l38.9,19.8 M461.9,298.9l46.1,19.9 M181.1,376.1
	l9.7-21.6 M212.6,305.8 M355.4,0.9l-9.9,21.5 M309.9,99.7"/>
</svg>
