<?xml version="1.0" encoding="utf-8"?>
<!-- Generator: Adobe Illustrator 19.0.0, SVG Export Plug-In . SVG Version: 6.00 Build 0)  -->
<svg version="1.1" id="Calque_1" xmlns="http://www.w3.org/2000/svg" xmlns:xlink="http://www.w3.org/1999/xlink" x="0px" y="0px"
	 viewBox="0 0 472 340" style="enable-background:new 0 0 472 340;" xml:space="preserve">
<style type="text/css">
	.st0{fill:none;stroke:url(#XMLID_3_);stroke-width:1.2599;stroke-miterlimit:10;}
	.st1{fill:url(#XMLID_4_);}
	.st2{fill:none;stroke:url(#XMLID_5_);stroke-width:2.5198;stroke-miterlimit:10;}
	.st3{fill:none;stroke:url(#XMLID_6_);stroke-width:2.5198;stroke-miterlimit:10;}
	.st4{fill:none;stroke:url(#XMLID_7_);stroke-width:2.5198;stroke-miterlimit:10;}
</style>
<g id="XMLID_2_">
	<linearGradient id="XMLID_3_" gradientUnits="userSpaceOnUse" x1="149.7042" y1="178.0348" x2="295.5068" y2="178.0348">
		<stop  offset="0" style="stop-color:#3C275A"/>
		<stop  offset="7.735384e-02" style="stop-color:#4A275A"/>
		<stop  offset="0.3778" style="stop-color:#7A2559"/>
		<stop  offset="0.6426" style="stop-color:#9D2458"/>
		<stop  offset="0.859" style="stop-color:#B22358"/>
		<stop  offset="1" style="stop-color:#BA2358"/>
	</linearGradient>
	<path id="XMLID_149_" class="st0" d="M290.1,240.1c-14.8,13.4-34.5,21.6-56.1,21.6c-46.2,0-83.7-37.5-83.7-83.7
		s37.5-83.7,83.7-83.7c24.1,0,45.8,10.2,61,26.5"/>
	<linearGradient id="XMLID_4_" gradientUnits="userSpaceOnUse" x1="162.4101" y1="168.1022" x2="354.25" y2="168.1022">
		<stop  offset="0" style="stop-color:#3C275A"/>
		<stop  offset="7.735384e-02" style="stop-color:#4A275A"/>
		<stop  offset="0.3778" style="stop-color:#7A2559"/>
		<stop  offset="0.6426" style="stop-color:#9D2458"/>
		<stop  offset="0.859" style="stop-color:#B22358"/>
		<stop  offset="1" style="stop-color:#BA2358"/>
	</linearGradient>
	<path id="XMLID_30_" class="st1" d="M197.4,132.8c0.1,0.1,0.2,0.3,0.2,0.4c0,0.2-0.1,0.3-0.2,0.4c-0.1,0.1-0.3,0.2-0.4,0.2h-7.3
		c-0.2,0-0.3-0.1-0.4-0.2c-0.1-0.1-0.2-0.3-0.2-0.4v-13.1c0-0.2,0.1-0.3,0.2-0.4s0.3-0.2,0.5-0.2c0.2,0,0.3,0.1,0.5,0.2
		c0.1,0.1,0.2,0.3,0.2,0.4v12.5h6.6C197.1,132.7,197.3,132.7,197.4,132.8z M209.6,123.6c0.1,0.1,0.2,0.3,0.2,0.5v9.2
		c0,0.2-0.1,0.3-0.2,0.4c-0.1,0.1-0.3,0.2-0.4,0.2s-0.3-0.1-0.4-0.2c-0.1-0.1-0.2-0.3-0.2-0.4v-1.4c-0.3,0.6-0.9,1.1-1.5,1.6
		c-0.7,0.4-1.4,0.6-2.2,0.6c-0.9,0-1.7-0.2-2.5-0.7c-0.7-0.5-1.3-1.1-1.7-2s-0.6-1.8-0.6-2.8c0-1,0.2-2,0.6-2.8
		c0.4-0.8,1-1.5,1.7-1.9c0.7-0.5,1.5-0.7,2.4-0.7c0.8,0,1.6,0.2,2.3,0.6c0.7,0.4,1.2,0.9,1.5,1.6v-1.3c0-0.2,0.1-0.3,0.2-0.5
		c0.1-0.1,0.3-0.2,0.4-0.2S209.5,123.5,209.6,123.6z M206.8,132.4c0.6-0.4,1-0.9,1.3-1.6s0.5-1.4,0.5-2.2c0-0.8-0.2-1.5-0.5-2.2
		c-0.3-0.7-0.8-1.2-1.3-1.5c-0.6-0.4-1.2-0.6-1.9-0.6c-0.7,0-1.3,0.2-1.9,0.6c-0.6,0.4-1,0.9-1.3,1.5s-0.5,1.4-0.5,2.2
		c0,0.8,0.2,1.6,0.5,2.2s0.8,1.2,1.3,1.6c0.6,0.4,1.2,0.6,1.9,0.6C205.6,132.9,206.2,132.8,206.8,132.4z M202,142.7
		c1,0.6,1.8,1.5,2.4,2.6c0.6,1.1,0.9,2.3,0.9,3.7c0,1.3-0.3,2.6-0.9,3.7c-0.6,1.1-1.4,2-2.4,2.7c-1,0.7-2.1,1-3.3,1h-6.4v7.5
		c0,0.5-0.1,0.8-0.4,1.2c-0.3,0.3-0.7,0.5-1.1,0.5c-0.5,0-0.9-0.2-1.1-0.5c-0.3-0.3-0.4-0.7-0.4-1.2v-20.4c0-0.5,0.2-0.8,0.5-1.2
		c0.3-0.3,0.7-0.5,1.2-0.5h7.8C199.9,141.8,201,142.1,202,142.7z M200.4,152.7c0.5-0.4,0.9-0.9,1.2-1.6c0.3-0.7,0.5-1.4,0.5-2.1
		c0-1.1-0.3-2.1-1-2.9c-0.7-0.8-1.5-1.2-2.4-1.2h-6.4v8.4h6.4C199.3,153.3,199.9,153.1,200.4,152.7z M225.4,162.7
		c0.3,0.3,0.5,0.7,0.5,1.2c0,0.5-0.2,0.8-0.5,1.1c-0.3,0.3-0.7,0.4-1.2,0.4h-11.4c-0.5,0-0.9-0.2-1.2-0.5c-0.3-0.3-0.5-0.7-0.5-1.2
		v-20.4c0-0.5,0.2-0.8,0.5-1.2c0.3-0.3,0.7-0.5,1.2-0.5c0.5,0,0.8,0.2,1.2,0.5c0.3,0.3,0.5,0.7,0.5,1.2v18.9h9.7
		C224.7,162.3,225.1,162.4,225.4,162.7z M249.8,164c0,0.5-0.2,0.8-0.5,1.1c-0.3,0.3-0.7,0.4-1.1,0.4c-0.3,0-0.6-0.1-0.9-0.3
		c-0.3-0.2-0.5-0.5-0.6-0.8l-2.1-5h-10.5l-2.1,5c-0.1,0.3-0.3,0.6-0.6,0.8c-0.3,0.2-0.5,0.3-0.9,0.3c-0.5,0-0.8-0.1-1.1-0.4
		c-0.2-0.2-0.4-0.6-0.4-1c0-0.1,0-0.3,0.1-0.5l8.6-20.9c0.2-0.4,0.4-0.6,0.7-0.8c0.3-0.2,0.6-0.3,1-0.2c0.3,0,0.6,0.1,0.9,0.3
		c0.3,0.2,0.5,0.4,0.6,0.8l8.6,20.6C249.8,163.5,249.8,163.8,249.8,164z M235.5,156.4h7.9l-4-9.5L235.5,156.4z M272.4,144.5
		c0,0.4-0.1,0.8-0.4,1.1c-0.3,0.4-0.6,0.5-1.1,0.5c-0.3,0-0.6-0.1-0.9-0.2c-1.4-0.8-2.9-1.2-4.5-1.2c-1.7,0-3.2,0.4-4.5,1.1
		c-1.3,0.7-2.3,1.8-3,3.1c-0.7,1.3-1.1,2.9-1.1,4.6c0,1.9,0.4,3.5,1.1,4.8c0.7,1.4,1.8,2.4,3.1,3.1c1.3,0.7,2.8,1.1,4.4,1.1
		c1.7,0,3.2-0.4,4.5-1.2c0.3-0.1,0.6-0.2,0.9-0.2c0.5,0,0.9,0.2,1.2,0.6c0.3,0.3,0.4,0.7,0.4,1.1c0,0.3-0.1,0.5-0.2,0.8
		c-0.1,0.2-0.3,0.4-0.6,0.6c-0.9,0.5-1.9,0.9-3,1.2c-1.1,0.3-2.2,0.4-3.2,0.4c-2.2,0-4.2-0.5-6-1.5c-1.8-1-3.3-2.4-4.4-4.2
		s-1.6-4-1.6-6.5c0-2.3,0.5-4.3,1.6-6.2c1-1.8,2.5-3.3,4.3-4.3c1.8-1,3.9-1.6,6.2-1.6c2.2,0,4.2,0.5,6.2,1.6
		C272.2,143.4,272.4,143.9,272.4,144.5z M292.6,162.8c0.3,0.3,0.5,0.7,0.5,1.1c0,0.5-0.2,0.8-0.5,1.1c-0.3,0.3-0.7,0.4-1.2,0.4
		h-11.8c-0.5,0-0.8-0.2-1.2-0.5c-0.3-0.3-0.5-0.7-0.5-1.2v-20.4c0-0.5,0.2-0.8,0.5-1.2c0.3-0.3,0.7-0.5,1.2-0.5h11.8
		c0.5,0,0.9,0.1,1.2,0.4c0.3,0.3,0.5,0.7,0.5,1.2c0,0.5-0.2,0.8-0.5,1.1c-0.3,0.3-0.7,0.4-1.2,0.4h-10v6.9h8.5
		c0.5,0,0.9,0.1,1.2,0.4c0.3,0.3,0.5,0.7,0.5,1.1c0,0.5-0.2,0.8-0.5,1.1c-0.3,0.3-0.7,0.4-1.2,0.4h-8.5v7.5h10
		C291.9,162.3,292.3,162.5,292.6,162.8z M309.6,150.4c0.1,0.1,0.2,0.3,0.2,0.4v13.9c0,0.2-0.1,0.3-0.2,0.4c-0.1,0.1-0.3,0.2-0.4,0.2
		c-0.2,0-0.3-0.1-0.4-0.2c-0.1-0.1-0.2-0.3-0.2-0.4v-1.4c-0.3,0.6-0.9,1.2-1.5,1.6c-0.7,0.4-1.4,0.7-2.2,0.7c-0.9,0-1.7-0.2-2.4-0.7
		c-0.7-0.5-1.3-1.1-1.7-2c-0.4-0.8-0.6-1.8-0.6-2.8c0-1,0.2-2,0.6-2.8c0.4-0.8,1-1.5,1.7-2c0.7-0.5,1.5-0.7,2.4-0.7
		c0.8,0,1.6,0.2,2.2,0.6c0.7,0.4,1.2,0.9,1.6,1.6v-6c0-0.2,0.1-0.3,0.2-0.4c0.1-0.1,0.3-0.2,0.4-0.2
		C309.4,150.3,309.5,150.3,309.6,150.4z M306.8,163.9c0.6-0.4,1-0.9,1.3-1.5c0.3-0.7,0.5-1.4,0.5-2.2c0-0.8-0.2-1.5-0.5-2.2
		c-0.3-0.7-0.8-1.2-1.3-1.5c-0.6-0.4-1.2-0.6-1.9-0.6c-0.7,0-1.3,0.2-1.9,0.6c-0.6,0.4-1,0.9-1.3,1.5c-0.3,0.7-0.5,1.4-0.5,2.2
		c0,0.8,0.2,1.6,0.5,2.2c0.3,0.7,0.8,1.2,1.3,1.5c0.6,0.4,1.2,0.6,1.9,0.6C305.6,164.5,306.3,164.3,306.8,163.9z M322.6,155.2
		c0.1,0.1,0.2,0.3,0.2,0.4v5.8c0,1.3-0.4,2.4-1.1,3.1c-0.8,0.7-1.8,1.1-3.1,1.1c-1.3,0-2.3-0.4-3.1-1.1c-0.7-0.7-1.1-1.7-1.1-3.1
		v-5.8c0-0.2,0.1-0.3,0.2-0.4c0.1-0.1,0.3-0.2,0.4-0.2c0.2,0,0.3,0.1,0.4,0.2c0.1,0.1,0.2,0.3,0.2,0.4v5.8c0,1,0.3,1.7,0.8,2.2
		c0.5,0.5,1.3,0.8,2.2,0.8c1,0,1.7-0.3,2.2-0.8c0.5-0.5,0.8-1.3,0.8-2.2v-5.8c0-0.2,0.1-0.3,0.2-0.4c0.1-0.1,0.3-0.2,0.4-0.2
		C322.4,155,322.5,155.1,322.6,155.2z M264.8,216.2c-0.1-0.1-0.2-0.3-0.2-0.6v-0.4c0-0.2,0.1-0.4,0.2-0.6c0.1-0.1,0.3-0.2,0.5-0.2
		h0.1c0.2,0,0.4,0.1,0.5,0.2c0.1,0.1,0.2,0.3,0.2,0.6v0.4c0,0.2-0.1,0.4-0.2,0.6c-0.1,0.1-0.3,0.2-0.5,0.2h-0.1
		C265.1,216.5,264.9,216.4,264.8,216.2z M276.2,206c0.6,0.1,1,0.3,1.3,0.6c0.3,0.2,0.5,0.5,0.5,0.8c0,0.2-0.1,0.3-0.2,0.4
		c-0.1,0.1-0.2,0.2-0.4,0.2c-0.1,0-0.2,0-0.3-0.1c-0.1-0.1-0.2-0.1-0.3-0.2c-0.2-0.2-0.3-0.3-0.5-0.4c-0.2-0.1-0.5-0.2-0.8-0.2
		c-0.3-0.1-0.7-0.1-1.1-0.1c-0.8,0-1.4,0.2-2.1,0.6s-1.1,0.9-1.5,1.6c-0.4,0.7-0.5,1.4-0.5,2.2c0,0.8,0.2,1.6,0.5,2.2
		c0.3,0.7,0.8,1.2,1.4,1.5c0.6,0.4,1.3,0.6,2.1,0.6c0.5,0,0.9,0,1.2-0.1c0.3-0.1,0.6-0.2,0.9-0.3c0.1-0.1,0.3-0.2,0.5-0.4
		c0.1-0.1,0.2-0.2,0.3-0.2c0.1,0,0.2-0.1,0.3-0.1c0.2,0,0.3,0.1,0.4,0.2c0.1,0.1,0.1,0.2,0.1,0.4c0,0.2-0.2,0.5-0.5,0.7
		c-0.3,0.3-0.8,0.5-1.4,0.7c-0.6,0.2-1.2,0.3-1.9,0.3c-1,0-1.9-0.2-2.7-0.7c-0.8-0.5-1.4-1.1-1.8-2c-0.4-0.8-0.6-1.8-0.6-2.8
		c0-1,0.2-1.9,0.7-2.7c0.4-0.8,1.1-1.5,1.8-2c0.8-0.5,1.7-0.7,2.7-0.7C275.1,205.7,275.7,205.8,276.2,206z M290.5,214
		c-0.5,0.8-1.1,1.5-1.9,2c-0.8,0.5-1.7,0.7-2.6,0.7c-1,0-1.9-0.2-2.6-0.7c-0.8-0.5-1.4-1.1-1.9-2c-0.5-0.8-0.7-1.8-0.7-2.8
		c0-1,0.2-2,0.7-2.8c0.5-0.8,1.1-1.5,1.9-2c0.8-0.5,1.7-0.7,2.6-0.7c1,0,1.9,0.2,2.6,0.7c0.8,0.5,1.4,1.1,1.9,2
		c0.5,0.8,0.7,1.8,0.7,2.8C291.1,212.2,290.9,213.2,290.5,214z M289.4,209c-0.3-0.7-0.8-1.2-1.4-1.5c-0.6-0.4-1.3-0.6-2-0.6
		c-0.7,0-1.4,0.2-2,0.6c-0.6,0.4-1.1,0.9-1.4,1.5c-0.3,0.7-0.5,1.4-0.5,2.2c0,0.8,0.2,1.5,0.5,2.2c0.3,0.7,0.8,1.2,1.4,1.5
		c0.6,0.4,1.3,0.6,2,0.6c0.7,0,1.4-0.2,2-0.6c0.6-0.4,1.1-0.9,1.4-1.5c0.3-0.7,0.5-1.4,0.5-2.2C289.9,210.4,289.7,209.7,289.4,209z
		 M309.3,207c0.6,0.8,0.9,1.8,0.9,3v5.8c0,0.2-0.1,0.3-0.2,0.4c-0.1,0.1-0.3,0.2-0.4,0.2c-0.2,0-0.3-0.1-0.4-0.2
		c-0.1-0.1-0.2-0.3-0.2-0.4v-5.7c0-0.9-0.2-1.6-0.6-2.2c-0.4-0.6-1.1-0.9-2-0.9c-0.6,0-1.1,0.1-1.6,0.4c-0.5,0.3-0.9,0.6-1.2,1.1
		c-0.3,0.5-0.5,1-0.5,1.5v5.7c0,0.2-0.1,0.3-0.2,0.4c-0.1,0.1-0.3,0.2-0.4,0.2c-0.2,0-0.3-0.1-0.4-0.2c-0.1-0.1-0.2-0.3-0.2-0.4V210
		c0-0.9-0.2-1.6-0.6-2.2c-0.4-0.6-1.1-0.8-1.9-0.8c-0.6,0-1.1,0.1-1.6,0.4c-0.5,0.3-0.9,0.6-1.2,1.1c-0.3,0.5-0.5,1-0.5,1.5v5.8
		c0,0.2-0.1,0.3-0.2,0.4c-0.1,0.1-0.3,0.2-0.4,0.2c-0.2,0-0.3-0.1-0.4-0.2c-0.1-0.1-0.2-0.3-0.2-0.4v-9.2c0-0.2,0.1-0.3,0.2-0.4
		c0.1-0.1,0.3-0.2,0.4-0.2c0.2,0,0.3,0.1,0.4,0.2c0.1,0.1,0.2,0.3,0.2,0.4v1.2c0.4-0.6,0.9-1,1.5-1.4s1.3-0.6,2-0.6
		c0.8,0,1.5,0.2,2,0.6c0.6,0.4,1,0.9,1.2,1.7c0.3-0.6,0.8-1.1,1.6-1.6c0.8-0.5,1.5-0.7,2.3-0.7C307.8,205.9,308.7,206.3,309.3,207z
		 M166.7,196.9c-1.3-0.5-2.5-1.2-3.6-2.2c-0.5-0.4-0.7-0.9-0.7-1.4c0-0.4,0.2-0.8,0.5-1.1c0.3-0.3,0.7-0.5,1.1-0.5
		c0.4,0,0.7,0.1,1,0.4c0.9,0.8,1.8,1.4,2.8,1.8c1,0.4,2,0.6,3.3,0.6c1.4,0,2.6-0.3,3.6-1c1-0.7,1.5-1.5,1.5-2.5
		c0-1.2-0.5-2.1-1.5-2.7c-1-0.6-2.4-1.2-4.4-1.6c-2.3-0.5-4.1-1.3-5.4-2.3c-1.3-1.1-1.9-2.6-1.9-4.5c0-1.3,0.3-2.5,1-3.5
		c0.7-1,1.7-1.8,2.9-2.3c1.2-0.5,2.6-0.8,4.2-0.8c1.4,0,2.7,0.2,4,0.7c1.2,0.5,2.2,1,3,1.8c0.5,0.5,0.8,0.9,0.8,1.5
		c0,0.4-0.2,0.8-0.5,1.1c-0.3,0.3-0.7,0.5-1.1,0.5c-0.3,0-0.6-0.1-0.8-0.3c-0.6-0.6-1.4-1.1-2.4-1.5c-1-0.4-2-0.6-3-0.6
		c-1.5,0-2.7,0.3-3.6,0.9c-0.9,0.6-1.3,1.4-1.3,2.5c0,1.1,0.4,2,1.3,2.5c0.9,0.6,2.2,1.1,4,1.5c1.8,0.4,3.2,0.8,4.3,1.4
		c1.1,0.5,2,1.2,2.6,2.2c0.6,0.9,0.9,2.1,0.9,3.6c0,1.3-0.4,2.5-1.1,3.5s-1.7,1.8-3,2.4c-1.3,0.6-2.7,0.8-4.2,0.8
		C169.5,197.6,168,197.3,166.7,196.9z M198.1,174.5c1,0.6,1.8,1.5,2.4,2.6c0.6,1.1,0.9,2.3,0.9,3.7c0,1.3-0.3,2.6-0.9,3.7
		c-0.6,1.1-1.4,2-2.4,2.7c-1,0.7-2.1,1-3.3,1h-6.4v7.5c0,0.5-0.1,0.8-0.4,1.2c-0.3,0.3-0.7,0.5-1.1,0.5c-0.5,0-0.9-0.2-1.1-0.5
		c-0.3-0.3-0.4-0.7-0.4-1.2v-20.4c0-0.5,0.2-0.8,0.5-1.2c0.3-0.3,0.7-0.5,1.2-0.5h7.8C196,173.5,197.1,173.9,198.1,174.5z
		 M196.5,184.5c0.5-0.4,0.9-0.9,1.2-1.6c0.3-0.7,0.5-1.4,0.5-2.1c0-1.1-0.3-2.1-1-2.9c-0.7-0.8-1.5-1.2-2.4-1.2h-6.4v8.4h6.4
		C195.4,185,196,184.8,196.5,184.5z M221.9,194.6c0.3,0.3,0.5,0.7,0.5,1.1c0,0.5-0.2,0.8-0.5,1.1c-0.3,0.3-0.7,0.4-1.2,0.4h-11.8
		c-0.5,0-0.8-0.2-1.2-0.5c-0.3-0.3-0.5-0.7-0.5-1.2v-20.4c0-0.5,0.2-0.8,0.5-1.2c0.3-0.3,0.7-0.5,1.2-0.5h11.8
		c0.5,0,0.9,0.1,1.2,0.4c0.3,0.3,0.5,0.7,0.5,1.2c0,0.5-0.2,0.8-0.5,1.1c-0.3,0.3-0.7,0.4-1.2,0.4h-10v6.9h8.5
		c0.5,0,0.9,0.1,1.2,0.4c0.3,0.3,0.5,0.7,0.5,1.1c0,0.5-0.2,0.8-0.5,1.1c-0.3,0.3-0.7,0.4-1.2,0.4h-8.5v7.5h10
		C221.2,194.1,221.6,194.3,221.9,194.6z M246,176.3c0,0.4-0.1,0.8-0.4,1.1c-0.3,0.4-0.6,0.5-1.1,0.5c-0.3,0-0.6-0.1-0.9-0.2
		c-1.4-0.8-2.9-1.2-4.5-1.2c-1.7,0-3.2,0.4-4.5,1.1c-1.3,0.7-2.3,1.8-3,3.1c-0.7,1.3-1.1,2.9-1.1,4.6c0,1.9,0.4,3.5,1.1,4.8
		c0.7,1.4,1.8,2.4,3.1,3.1c1.3,0.7,2.8,1.1,4.4,1.1c1.7,0,3.2-0.4,4.5-1.2c0.3-0.1,0.6-0.2,0.9-0.2c0.5,0,0.9,0.2,1.2,0.6
		c0.3,0.3,0.4,0.7,0.4,1.1c0,0.3-0.1,0.5-0.2,0.8c-0.1,0.2-0.3,0.4-0.6,0.6c-0.9,0.5-1.9,0.9-3,1.2c-1.1,0.3-2.2,0.4-3.2,0.4
		c-2.2,0-4.2-0.5-6-1.5c-1.8-1-3.3-2.4-4.4-4.2c-1.1-1.8-1.6-4-1.6-6.5c0-2.3,0.5-4.3,1.6-6.2c1-1.8,2.5-3.3,4.3-4.3
		c1.8-1,3.9-1.6,6.2-1.6c2.2,0,4.2,0.5,6.2,1.6C245.7,175.2,246,175.7,246,176.3z M268.1,174c0.3,0.3,0.5,0.7,0.5,1.1
		s-0.2,0.8-0.5,1.1c-0.3,0.3-0.7,0.4-1.2,0.4h-6v19c0,0.5-0.2,0.8-0.5,1.2c-0.3,0.3-0.7,0.5-1.2,0.5c-0.5,0-0.9-0.2-1.2-0.5
		c-0.3-0.3-0.5-0.7-0.5-1.2v-19h-6c-0.5,0-0.9-0.1-1.2-0.4s-0.5-0.7-0.5-1.1c0-0.5,0.2-0.8,0.5-1.1c0.3-0.3,0.7-0.4,1.2-0.4h15.5
		C267.4,173.5,267.8,173.7,268.1,174z M290.7,195.8c0,0.5-0.2,0.8-0.5,1.1c-0.3,0.3-0.7,0.4-1.1,0.4c-0.3,0-0.6-0.1-0.9-0.3
		c-0.3-0.2-0.5-0.5-0.6-0.8l-2.1-5h-10.5l-2.1,5c-0.1,0.3-0.3,0.6-0.6,0.8c-0.3,0.2-0.5,0.3-0.9,0.3c-0.5,0-0.8-0.1-1.1-0.4
		c-0.2-0.2-0.4-0.6-0.4-1c0-0.1,0-0.3,0.1-0.5l8.6-20.9c0.2-0.4,0.4-0.6,0.7-0.8c0.3-0.2,0.6-0.3,1-0.2c0.3,0,0.6,0.1,0.9,0.3
		s0.5,0.4,0.6,0.8l8.6,20.6C290.7,195.3,290.7,195.5,290.7,195.8z M276.4,188.2h7.9l-4-9.5L276.4,188.2z M313.4,176.3
		c0,0.4-0.1,0.8-0.4,1.1c-0.3,0.4-0.6,0.5-1.1,0.5c-0.3,0-0.6-0.1-0.9-0.2c-1.4-0.8-2.9-1.2-4.5-1.2c-1.7,0-3.2,0.4-4.5,1.1
		c-1.3,0.7-2.3,1.8-3,3.1c-0.7,1.3-1.1,2.9-1.1,4.6c0,1.9,0.4,3.5,1.1,4.8c0.7,1.4,1.8,2.4,3.1,3.1c1.3,0.7,2.8,1.1,4.4,1.1
		c1.7,0,3.2-0.4,4.5-1.2c0.3-0.1,0.6-0.2,0.9-0.2c0.5,0,0.9,0.2,1.2,0.6c0.3,0.3,0.4,0.7,0.4,1.1c0,0.3-0.1,0.5-0.2,0.8
		c-0.1,0.2-0.3,0.4-0.6,0.6c-0.9,0.5-1.9,0.9-3,1.2c-1.1,0.3-2.2,0.4-3.2,0.4c-2.2,0-4.2-0.5-6-1.5c-1.8-1-3.3-2.4-4.4-4.2
		c-1.1-1.8-1.6-4-1.6-6.5c0-2.3,0.5-4.3,1.6-6.2c1-1.8,2.5-3.3,4.3-4.3c1.8-1,3.9-1.6,6.2-1.6c2.2,0,4.2,0.5,6.2,1.6
		C313.1,175.2,313.4,175.7,313.4,176.3z M333.2,194.5c0.3,0.3,0.5,0.7,0.5,1.2c0,0.5-0.2,0.8-0.5,1.1c-0.3,0.3-0.7,0.4-1.2,0.4
		h-11.4c-0.5,0-0.9-0.2-1.2-0.5c-0.3-0.3-0.5-0.7-0.5-1.2v-20.4c0-0.5,0.2-0.8,0.5-1.2c0.3-0.3,0.7-0.5,1.2-0.5
		c0.5,0,0.8,0.2,1.2,0.5c0.3,0.3,0.5,0.7,0.5,1.2v18.9h9.7C332.5,194.1,332.9,194.2,333.2,194.5z M353.8,194.6
		c0.3,0.3,0.5,0.7,0.5,1.1c0,0.5-0.2,0.8-0.5,1.1c-0.3,0.3-0.7,0.4-1.2,0.4h-11.8c-0.5,0-0.8-0.2-1.2-0.5c-0.3-0.3-0.5-0.7-0.5-1.2
		v-20.4c0-0.5,0.2-0.8,0.5-1.2c0.3-0.3,0.7-0.5,1.2-0.5h11.8c0.5,0,0.9,0.1,1.2,0.4c0.3,0.3,0.5,0.7,0.5,1.2c0,0.5-0.2,0.8-0.5,1.1
		c-0.3,0.3-0.7,0.4-1.2,0.4h-10v6.9h8.5c0.5,0,0.9,0.1,1.2,0.4c0.3,0.3,0.5,0.7,0.5,1.1c0,0.5-0.2,0.8-0.5,1.1
		c-0.3,0.3-0.7,0.4-1.2,0.4h-8.5v7.5h10C353.1,194.1,353.5,194.3,353.8,194.6z"/>
	<linearGradient id="XMLID_5_" gradientUnits="userSpaceOnUse" x1="143.297" y1="138.8001" x2="143.297" y2="138.8001">
		<stop  offset="0" style="stop-color:#3C275A"/>
		<stop  offset="7.735384e-02" style="stop-color:#4A275A"/>
		<stop  offset="0.3778" style="stop-color:#7A2559"/>
		<stop  offset="0.6426" style="stop-color:#9D2458"/>
		<stop  offset="0.859" style="stop-color:#B22358"/>
		<stop  offset="1" style="stop-color:#BA2358"/>
	</linearGradient>
	<path id="XMLID_29_" class="st2" d="M143.3,138.8"/>
	<linearGradient id="XMLID_6_" gradientUnits="userSpaceOnUse" x1="320.3467" y1="223.8338" x2="320.3467" y2="223.8338">
		<stop  offset="0" style="stop-color:#3C275A"/>
		<stop  offset="7.735384e-02" style="stop-color:#4A275A"/>
		<stop  offset="0.3778" style="stop-color:#7A2559"/>
		<stop  offset="0.6426" style="stop-color:#9D2458"/>
		<stop  offset="0.859" style="stop-color:#B22358"/>
		<stop  offset="1" style="stop-color:#BA2358"/>
	</linearGradient>
	<path id="XMLID_28_" class="st3" d="M320.3,223.8"/>
	<linearGradient id="XMLID_7_" gradientUnits="userSpaceOnUse" x1="18.9191" y1="169.1864" x2="450.2129" y2="169.1864">
		<stop  offset="0" style="stop-color:#3C275A"/>
		<stop  offset="7.735384e-02" style="stop-color:#4A275A"/>
		<stop  offset="0.3778" style="stop-color:#7A2559"/>
		<stop  offset="0.6426" style="stop-color:#9D2458"/>
		<stop  offset="0.859" style="stop-color:#B22358"/>
		<stop  offset="1" style="stop-color:#BA2358"/>
	</linearGradient>
	<path id="XMLID_10_" class="st4" d="M323.7,216.8c-15,34.7-49.5,59-89.7,59c-54,0-97.7-43.8-97.7-97.7c0-14,2.9-27.2,8.2-39.2
		c15.1-34.4,49.5-58.5,89.5-58.5c23.1,0,44.3,8,61.1,21.4 M89.6,111.4l53.7,27.4 M143.3,138.8 M89.6,111.4 M299.7,54.7l-17.6,38.4
		 M189,291.6l9.7-22.2 M320.7,224.2l63,27.4 M19.5,75.7l33,16.8 M410.6,262.8l39.1,16.9 M172.4,328.3l8.2-18.3 M199.1,268.7
		 M320.2,10.1l-8.4,18.2 M281.6,93.9"/>
</g>
</svg>
