<?xml version="1.0" encoding="utf-8"?>
<!-- Generator: Adobe Illustrator 19.0.0, SVG Export Plug-In . SVG Version: 6.00 Build 0)  -->
<svg version="1.1" id="Calque_1" xmlns="http://www.w3.org/2000/svg" xmlns:xlink="http://www.w3.org/1999/xlink" x="0px" y="0px"
	 viewBox="0 0 472 340" style="enable-background:new 0 0 472 340;" xml:space="preserve">
<style type="text/css">
	.st0{fill:none;stroke:url(#XMLID_3_);stroke-width:1.1586;stroke-miterlimit:10;}
	.st1{fill:url(#XMLID_4_);}
	.st2{fill:none;stroke:url(#XMLID_5_);stroke-width:2.3173;stroke-miterlimit:10;}
	.st3{fill:none;stroke:url(#XMLID_6_);stroke-width:2.3173;stroke-miterlimit:10;}
	.st4{fill:none;stroke:url(#XMLID_7_);stroke-width:2.3173;stroke-miterlimit:10;}
</style>
<g id="XMLID_2_">
	<linearGradient id="XMLID_3_" gradientUnits="userSpaceOnUse" x1="153.8843" y1="176.9566" x2="287.9712" y2="176.9566">
		<stop  offset="0" style="stop-color:#3C275A"/>
		<stop  offset="7.735384e-02" style="stop-color:#4A275A"/>
		<stop  offset="0.3778" style="stop-color:#7A2559"/>
		<stop  offset="0.6426" style="stop-color:#9D2458"/>
		<stop  offset="0.859" style="stop-color:#B22358"/>
		<stop  offset="1" style="stop-color:#BA2358"/>
	</linearGradient>
	<path id="XMLID_149_" class="st0" d="M283,234c-13.6,12.3-31.7,19.9-51.6,19.9c-42.5,0-76.9-34.4-76.9-76.9s34.4-76.9,76.9-76.9
		c22.1,0,42.1,9.4,56.1,24.3"/>
	<linearGradient id="XMLID_4_" gradientUnits="userSpaceOnUse" x1="165.5693" y1="167.8221" x2="341.994" y2="167.8221">
		<stop  offset="0" style="stop-color:#3C275A"/>
		<stop  offset="7.735384e-02" style="stop-color:#4A275A"/>
		<stop  offset="0.3778" style="stop-color:#7A2559"/>
		<stop  offset="0.6426" style="stop-color:#9D2458"/>
		<stop  offset="0.859" style="stop-color:#B22358"/>
		<stop  offset="1" style="stop-color:#BA2358"/>
	</linearGradient>
	<path id="XMLID_30_" class="st1" d="M197.8,135.4c0.1,0.1,0.2,0.2,0.2,0.4c0,0.2-0.1,0.3-0.2,0.4c-0.1,0.1-0.2,0.2-0.4,0.2h-6.7
		c-0.2,0-0.3-0.1-0.4-0.2c-0.1-0.1-0.2-0.2-0.2-0.4v-12.1c0-0.2,0.1-0.3,0.2-0.4c0.1-0.1,0.3-0.2,0.4-0.2c0.2,0,0.3,0.1,0.4,0.2
		s0.2,0.2,0.2,0.4v11.5h6.1C197.5,135.2,197.6,135.3,197.8,135.4z M209,126.9c0.1,0.1,0.2,0.3,0.2,0.4v8.5c0,0.2-0.1,0.3-0.2,0.4
		c-0.1,0.1-0.2,0.2-0.4,0.2c-0.2,0-0.3-0.1-0.4-0.2c-0.1-0.1-0.2-0.2-0.2-0.4v-1.3c-0.3,0.6-0.8,1-1.4,1.4c-0.6,0.4-1.3,0.6-2.1,0.6
		c-0.8,0-1.6-0.2-2.3-0.7c-0.7-0.4-1.2-1-1.6-1.8s-0.6-1.6-0.6-2.6c0-1,0.2-1.8,0.6-2.6c0.4-0.8,0.9-1.4,1.6-1.8
		c0.7-0.4,1.4-0.6,2.2-0.6c0.8,0,1.4,0.2,2.1,0.5c0.6,0.4,1.1,0.8,1.4,1.4v-1.2c0-0.2,0.1-0.3,0.2-0.4c0.1-0.1,0.2-0.2,0.4-0.2
		C208.7,126.7,208.9,126.8,209,126.9z M206.4,135c0.5-0.3,0.9-0.8,1.2-1.4s0.4-1.3,0.4-2c0-0.7-0.1-1.4-0.4-2s-0.7-1.1-1.2-1.4
		c-0.5-0.3-1.1-0.5-1.8-0.5c-0.7,0-1.2,0.2-1.8,0.5c-0.5,0.3-0.9,0.8-1.2,1.4s-0.4,1.3-0.4,2c0,0.8,0.1,1.4,0.4,2
		c0.3,0.6,0.7,1.1,1.2,1.4c0.5,0.3,1.1,0.5,1.8,0.5C205.3,135.5,205.9,135.3,206.4,135z M202,144.5c0.9,0.6,1.7,1.4,2.2,2.4
		c0.5,1,0.8,2.1,0.8,3.4c0,1.2-0.3,2.4-0.8,3.4c-0.5,1-1.3,1.9-2.2,2.5c-0.9,0.6-1.9,0.9-3,0.9h-5.8v6.9c0,0.4-0.1,0.8-0.4,1.1
		c-0.3,0.3-0.6,0.4-1,0.4c-0.4,0-0.8-0.1-1-0.4c-0.3-0.3-0.4-0.6-0.4-1.1v-18.8c0-0.4,0.1-0.8,0.4-1.1c0.3-0.3,0.6-0.4,1.1-0.4h7.2
		C200,143.6,201,143.9,202,144.5z M200.5,153.6c0.5-0.4,0.9-0.8,1.1-1.4c0.3-0.6,0.4-1.2,0.4-1.9c0-1.1-0.3-2-0.9-2.7
		c-0.6-0.7-1.3-1.1-2.2-1.1h-5.8v7.7h5.8C199.5,154.2,200,154,200.5,153.6z M223.5,162.9c0.3,0.3,0.4,0.6,0.4,1.1
		c0,0.4-0.1,0.8-0.4,1c-0.3,0.3-0.6,0.4-1.1,0.4h-10.5c-0.4,0-0.8-0.1-1.1-0.4c-0.3-0.3-0.4-0.6-0.4-1.1v-18.8
		c0-0.4,0.1-0.8,0.4-1.1c0.3-0.3,0.7-0.4,1.1-0.4c0.4,0,0.8,0.1,1.1,0.4c0.3,0.3,0.5,0.6,0.5,1.1v17.4h8.9
		C222.9,162.5,223.2,162.6,223.5,162.9z M245.9,164c0,0.4-0.1,0.8-0.4,1c-0.3,0.3-0.6,0.4-1,0.4c-0.3,0-0.6-0.1-0.8-0.3
		c-0.2-0.2-0.4-0.4-0.6-0.7l-1.9-4.6h-9.6l-1.9,4.6c-0.1,0.3-0.3,0.5-0.5,0.7c-0.2,0.2-0.5,0.2-0.8,0.2c-0.4,0-0.8-0.1-1-0.3
		c-0.2-0.2-0.3-0.5-0.3-0.9c0-0.1,0-0.2,0.1-0.5l7.9-19.2c0.1-0.3,0.3-0.6,0.6-0.8c0.3-0.2,0.6-0.2,0.9-0.2c0.3,0,0.6,0.1,0.8,0.2
		c0.2,0.2,0.4,0.4,0.5,0.7l7.9,19C245.9,163.6,245.9,163.8,245.9,164z M232.8,157.1h7.2l-3.6-8.7L232.8,157.1z M266.7,146.1
		c0,0.4-0.1,0.7-0.4,1c-0.2,0.3-0.6,0.5-1,0.5c-0.3,0-0.6-0.1-0.8-0.2c-1.3-0.7-2.7-1.1-4.2-1.1c-1.6,0-2.9,0.3-4.1,1
		s-2.1,1.6-2.8,2.9c-0.7,1.2-1,2.6-1,4.2c0,1.7,0.3,3.2,1,4.4c0.7,1.2,1.6,2.2,2.8,2.8c1.2,0.7,2.6,1,4,1c1.5,0,2.9-0.4,4.2-1.1
		c0.2-0.1,0.5-0.2,0.8-0.2c0.5,0,0.8,0.2,1.1,0.5c0.2,0.3,0.4,0.6,0.4,1c0,0.2-0.1,0.5-0.2,0.7c-0.1,0.2-0.3,0.4-0.5,0.5
		c-0.8,0.5-1.7,0.8-2.7,1.1c-1,0.3-2,0.4-3,0.4c-2,0-3.9-0.4-5.6-1.3c-1.7-0.9-3-2.2-4-3.9c-1-1.7-1.5-3.7-1.5-6
		c0-2.1,0.5-4,1.4-5.7c1-1.7,2.3-3,4-4c1.7-1,3.6-1.4,5.7-1.4c2,0,3.9,0.5,5.7,1.5C266.5,145.1,266.7,145.6,266.7,146.1z
		 M285.3,162.9c0.3,0.3,0.4,0.6,0.4,1c0,0.4-0.1,0.8-0.4,1c-0.3,0.3-0.6,0.4-1.1,0.4h-10.8c-0.4,0-0.8-0.1-1.1-0.4
		c-0.3-0.3-0.4-0.6-0.4-1.1v-18.8c0-0.4,0.1-0.8,0.4-1.1c0.3-0.3,0.6-0.4,1.1-0.4h10.8c0.4,0,0.8,0.1,1.1,0.4
		c0.3,0.3,0.4,0.6,0.4,1.1c0,0.4-0.1,0.8-0.4,1c-0.3,0.3-0.6,0.4-1.1,0.4H275v6.3h7.8c0.4,0,0.8,0.1,1.1,0.4c0.3,0.3,0.4,0.6,0.4,1
		c0,0.4-0.1,0.8-0.4,1c-0.3,0.2-0.6,0.4-1.1,0.4H275v6.9h9.2C284.6,162.5,285,162.7,285.3,162.9z M301,151.6
		c0.1,0.1,0.2,0.2,0.2,0.4v12.8c0,0.2-0.1,0.3-0.2,0.4c-0.1,0.1-0.2,0.2-0.4,0.2s-0.3-0.1-0.4-0.2c-0.1-0.1-0.2-0.2-0.2-0.4v-1.3
		c-0.3,0.6-0.8,1.1-1.4,1.5c-0.6,0.4-1.3,0.6-2.1,0.6c-0.8,0-1.6-0.2-2.3-0.7s-1.2-1-1.6-1.8c-0.4-0.8-0.6-1.6-0.6-2.6
		c0-0.9,0.2-1.8,0.6-2.6c0.4-0.8,0.9-1.4,1.6-1.8c0.7-0.4,1.4-0.6,2.2-0.6c0.7,0,1.4,0.2,2.1,0.6c0.6,0.4,1.1,0.9,1.4,1.4V152
		c0-0.2,0.1-0.3,0.2-0.4c0.1-0.1,0.2-0.2,0.4-0.2S300.9,151.5,301,151.6z M298.4,164c0.5-0.3,0.9-0.8,1.2-1.4s0.4-1.3,0.4-2
		c0-0.7-0.1-1.4-0.4-2c-0.3-0.6-0.7-1.1-1.2-1.4c-0.5-0.3-1.1-0.5-1.8-0.5c-0.7,0-1.2,0.2-1.8,0.5c-0.5,0.3-0.9,0.8-1.2,1.4
		c-0.3,0.6-0.4,1.3-0.4,2c0,0.8,0.1,1.4,0.4,2c0.3,0.6,0.7,1.1,1.2,1.4c0.5,0.3,1.1,0.5,1.8,0.5C297.3,164.5,297.9,164.3,298.4,164z
		 M312.9,156c0.1,0.1,0.2,0.2,0.2,0.4v5.3c0,1.2-0.3,2.2-1,2.8c-0.7,0.7-1.6,1-2.9,1c-1.2,0-2.2-0.3-2.8-1c-0.7-0.7-1-1.6-1-2.8
		v-5.3c0-0.2,0.1-0.3,0.2-0.4c0.1-0.1,0.2-0.2,0.4-0.2s0.3,0.1,0.4,0.2c0.1,0.1,0.2,0.2,0.2,0.4v5.3c0,0.9,0.2,1.6,0.7,2.1
		c0.5,0.5,1.2,0.7,2,0.7c0.9,0,1.6-0.2,2-0.7c0.5-0.5,0.7-1.2,0.7-2.1v-5.3c0-0.2,0.1-0.3,0.2-0.4c0.1-0.1,0.2-0.2,0.4-0.2
		C312.7,155.8,312.8,155.8,312.9,156z M259.7,212.1c-0.1-0.1-0.2-0.3-0.2-0.5v-0.4c0-0.2,0.1-0.4,0.2-0.5c0.1-0.1,0.3-0.2,0.5-0.2
		h0.1c0.2,0,0.4,0.1,0.5,0.2c0.1,0.1,0.2,0.3,0.2,0.5v0.4c0,0.2-0.1,0.4-0.2,0.5c-0.1,0.1-0.3,0.2-0.5,0.2h-0.1
		C260,212.3,259.8,212.2,259.7,212.1z M270.2,202.6c0.5,0.1,0.9,0.3,1.2,0.5c0.3,0.2,0.5,0.5,0.5,0.7c0,0.1,0,0.3-0.1,0.4
		c-0.1,0.1-0.2,0.2-0.3,0.2c-0.1,0-0.2,0-0.3-0.1c-0.1,0-0.2-0.1-0.3-0.2c-0.2-0.2-0.3-0.3-0.5-0.4c-0.2-0.1-0.4-0.2-0.7-0.2
		c-0.3-0.1-0.6-0.1-1-0.1c-0.7,0-1.3,0.2-1.9,0.5c-0.6,0.4-1,0.8-1.3,1.4c-0.3,0.6-0.5,1.3-0.5,2c0,0.8,0.2,1.4,0.5,2
		c0.3,0.6,0.8,1.1,1.3,1.4c0.6,0.3,1.2,0.5,1.9,0.5c0.5,0,0.8,0,1.1-0.1c0.3-0.1,0.5-0.2,0.8-0.3c0.1,0,0.2-0.2,0.5-0.3
		c0.1-0.1,0.2-0.2,0.3-0.2c0.1,0,0.2-0.1,0.2-0.1c0.2,0,0.3,0,0.4,0.1c0.1,0.1,0.1,0.2,0.1,0.4c0,0.2-0.2,0.4-0.5,0.7
		c-0.3,0.2-0.7,0.5-1.2,0.6c-0.5,0.2-1.1,0.3-1.8,0.3c-0.9,0-1.7-0.2-2.5-0.7s-1.3-1-1.7-1.8c-0.4-0.8-0.6-1.6-0.6-2.6
		c0-0.9,0.2-1.8,0.6-2.5c0.4-0.8,1-1.4,1.7-1.8c0.7-0.5,1.6-0.7,2.5-0.7C269.2,202.4,269.7,202.5,270.2,202.6z M283.3,210
		c-0.4,0.8-1,1.4-1.7,1.8c-0.7,0.4-1.5,0.7-2.4,0.7c-0.9,0-1.7-0.2-2.4-0.7c-0.7-0.4-1.3-1-1.7-1.8c-0.4-0.8-0.6-1.6-0.6-2.6
		c0-0.9,0.2-1.8,0.6-2.6c0.4-0.8,1-1.4,1.7-1.8c0.7-0.4,1.5-0.7,2.4-0.7c0.9,0,1.7,0.2,2.4,0.7c0.7,0.4,1.3,1,1.7,1.8
		c0.4,0.8,0.6,1.6,0.6,2.6C284,208.4,283.8,209.3,283.3,210z M282.4,205.4c-0.3-0.6-0.8-1.1-1.3-1.4c-0.6-0.3-1.2-0.5-1.9-0.5
		c-0.7,0-1.3,0.2-1.8,0.5c-0.6,0.3-1,0.8-1.3,1.4c-0.3,0.6-0.5,1.3-0.5,2c0,0.7,0.2,1.4,0.5,2c0.3,0.6,0.8,1.1,1.3,1.4
		c0.6,0.3,1.2,0.5,1.8,0.5c0.7,0,1.3-0.2,1.9-0.5c0.6-0.3,1-0.8,1.3-1.4c0.3-0.6,0.5-1.3,0.5-2C282.8,206.7,282.7,206,282.4,205.4z
		 M300.7,203.6c0.5,0.7,0.8,1.6,0.8,2.8v5.3c0,0.2-0.1,0.3-0.2,0.4c-0.1,0.1-0.2,0.2-0.4,0.2c-0.2,0-0.3-0.1-0.4-0.2
		c-0.1-0.1-0.2-0.2-0.2-0.4v-5.3c0-0.8-0.2-1.5-0.6-2c-0.4-0.5-1-0.8-1.8-0.8c-0.5,0-1,0.1-1.5,0.4c-0.5,0.3-0.9,0.6-1.1,1
		c-0.3,0.4-0.4,0.9-0.4,1.4v5.3c0,0.2-0.1,0.3-0.2,0.4c-0.1,0.1-0.2,0.2-0.4,0.2c-0.2,0-0.3-0.1-0.4-0.2c-0.1-0.1-0.2-0.2-0.2-0.4
		v-5.3c0-0.8-0.2-1.5-0.6-2c-0.4-0.5-1-0.8-1.8-0.8c-0.5,0-1,0.1-1.5,0.4c-0.5,0.3-0.8,0.6-1.1,1c-0.3,0.4-0.4,0.9-0.4,1.4v5.3
		c0,0.2-0.1,0.3-0.2,0.4c-0.1,0.1-0.2,0.2-0.4,0.2s-0.3-0.1-0.4-0.2c-0.1-0.1-0.2-0.2-0.2-0.4v-8.4c0-0.2,0.1-0.3,0.2-0.4
		c0.1-0.1,0.2-0.2,0.4-0.2s0.3,0.1,0.4,0.2c0.1,0.1,0.2,0.2,0.2,0.4v1.1c0.3-0.5,0.8-0.9,1.4-1.3s1.2-0.5,1.8-0.5
		c0.7,0,1.4,0.2,1.9,0.5c0.5,0.4,0.9,0.9,1.1,1.5c0.3-0.6,0.7-1,1.5-1.5c0.7-0.4,1.4-0.6,2.1-0.6
		C299.3,202.6,300.1,202.9,300.7,203.6z M169.6,194.3c-1.2-0.4-2.3-1.1-3.3-2.1c-0.4-0.4-0.7-0.8-0.7-1.3c0-0.4,0.1-0.7,0.4-1
		c0.3-0.3,0.6-0.5,1-0.5c0.4,0,0.7,0.1,0.9,0.3c0.8,0.8,1.7,1.3,2.6,1.7c0.9,0.4,1.9,0.5,3,0.5c1.3,0,2.4-0.3,3.3-0.9
		c0.9-0.6,1.4-1.4,1.4-2.3c0-1.1-0.5-1.9-1.4-2.5c-0.9-0.6-2.2-1.1-4-1.5c-2.1-0.4-3.8-1.2-4.9-2.1c-1.2-1-1.7-2.4-1.7-4.1
		c0-1.2,0.3-2.3,1-3.2c0.6-0.9,1.5-1.6,2.7-2.1c1.1-0.5,2.4-0.7,3.9-0.7c1.3,0,2.5,0.2,3.6,0.6c1.1,0.4,2.1,1,2.8,1.6
		c0.5,0.4,0.7,0.9,0.7,1.3c0,0.4-0.1,0.7-0.4,1c-0.3,0.3-0.6,0.4-1,0.4c-0.3,0-0.5-0.1-0.7-0.2c-0.5-0.5-1.3-1-2.2-1.4
		c-1-0.4-1.9-0.6-2.7-0.6c-1.4,0-2.5,0.3-3.3,0.9c-0.8,0.6-1.2,1.3-1.2,2.3c0,1,0.4,1.8,1.2,2.3c0.8,0.5,2,1,3.7,1.4
		c1.6,0.4,2.9,0.8,4,1.2c1,0.5,1.8,1.1,2.4,2c0.6,0.9,0.8,2,0.8,3.3c0,1.2-0.3,2.3-1,3.2c-0.7,0.9-1.6,1.7-2.8,2.2
		c-1.2,0.5-2.4,0.8-3.8,0.8C172.1,194.9,170.7,194.7,169.6,194.3z M198.4,173.7c0.9,0.6,1.7,1.4,2.2,2.4c0.5,1,0.8,2.1,0.8,3.4
		c0,1.2-0.3,2.4-0.8,3.4c-0.5,1-1.3,1.9-2.2,2.5c-0.9,0.6-1.9,0.9-3,0.9h-5.8v6.9c0,0.4-0.1,0.8-0.4,1.1c-0.3,0.3-0.6,0.4-1,0.4
		c-0.4,0-0.8-0.1-1-0.4c-0.3-0.3-0.4-0.6-0.4-1.1v-18.8c0-0.4,0.1-0.8,0.4-1.1c0.3-0.3,0.6-0.4,1.1-0.4h7.2
		C196.4,172.8,197.5,173.1,198.4,173.7z M196.9,182.9c0.5-0.4,0.9-0.8,1.1-1.4c0.3-0.6,0.4-1.2,0.4-1.9c0-1.1-0.3-2-0.9-2.7
		c-0.6-0.7-1.3-1.1-2.2-1.1h-5.8v7.7h5.8C195.9,183.4,196.4,183.2,196.9,182.9z M220.2,192.2c0.3,0.3,0.4,0.6,0.4,1
		c0,0.4-0.1,0.8-0.4,1c-0.3,0.3-0.6,0.4-1.1,0.4h-10.8c-0.4,0-0.8-0.1-1.1-0.4c-0.3-0.3-0.4-0.6-0.4-1.1v-18.8
		c0-0.4,0.1-0.8,0.4-1.1c0.3-0.3,0.6-0.4,1.1-0.4h10.8c0.4,0,0.8,0.1,1.1,0.4c0.3,0.3,0.4,0.6,0.4,1.1c0,0.4-0.1,0.8-0.4,1
		c-0.3,0.3-0.6,0.4-1.1,0.4h-9.2v6.3h7.8c0.4,0,0.8,0.1,1.1,0.4c0.3,0.3,0.4,0.6,0.4,1c0,0.4-0.1,0.8-0.4,1
		c-0.3,0.2-0.6,0.4-1.1,0.4h-7.8v6.9h9.2C219.6,191.7,220,191.9,220.2,192.2z M242.4,175.3c0,0.4-0.1,0.7-0.4,1
		c-0.2,0.3-0.6,0.5-1,0.5c-0.3,0-0.6-0.1-0.8-0.2c-1.3-0.7-2.7-1.1-4.2-1.1c-1.6,0-2.9,0.3-4.1,1c-1.2,0.7-2.1,1.6-2.8,2.9
		c-0.7,1.2-1,2.6-1,4.2c0,1.7,0.3,3.2,1,4.4c0.7,1.2,1.6,2.2,2.8,2.8c1.2,0.7,2.6,1,4,1c1.5,0,2.9-0.4,4.2-1.1
		c0.2-0.1,0.5-0.2,0.8-0.2c0.5,0,0.8,0.2,1.1,0.5c0.2,0.3,0.4,0.6,0.4,1c0,0.2-0.1,0.5-0.2,0.7c-0.1,0.2-0.3,0.4-0.5,0.5
		c-0.8,0.5-1.7,0.8-2.7,1.1c-1,0.3-2,0.4-3,0.4c-2,0-3.9-0.4-5.6-1.3c-1.7-0.9-3-2.2-4-3.9c-1-1.7-1.5-3.7-1.5-6
		c0-2.1,0.5-4,1.4-5.7c1-1.7,2.3-3,4-4c1.7-1,3.6-1.4,5.7-1.4c2,0,3.9,0.5,5.7,1.5C242.2,174.4,242.4,174.8,242.4,175.3z
		 M262.7,173.2c0.3,0.3,0.4,0.6,0.4,1s-0.1,0.8-0.4,1c-0.3,0.2-0.6,0.4-1.1,0.4h-5.5v17.5c0,0.4-0.2,0.8-0.5,1.1
		c-0.3,0.3-0.7,0.4-1.1,0.4c-0.5,0-0.8-0.1-1.1-0.4c-0.3-0.3-0.5-0.6-0.5-1.1v-17.5h-5.5c-0.4,0-0.8-0.1-1.1-0.4s-0.4-0.6-0.4-1
		c0-0.4,0.1-0.8,0.4-1c0.3-0.3,0.6-0.4,1.1-0.4h14.2C262.1,172.8,262.5,173,262.7,173.2z M283.6,193.3c0,0.4-0.1,0.8-0.4,1
		c-0.3,0.3-0.6,0.4-1,0.4c-0.3,0-0.6-0.1-0.8-0.3c-0.2-0.2-0.4-0.4-0.6-0.7l-1.9-4.6h-9.6l-1.9,4.6c-0.1,0.3-0.3,0.5-0.5,0.7
		c-0.2,0.2-0.5,0.2-0.8,0.2c-0.4,0-0.8-0.1-1-0.3c-0.2-0.2-0.3-0.5-0.3-0.9c0-0.1,0-0.2,0.1-0.5l7.9-19.2c0.1-0.3,0.3-0.6,0.6-0.8
		c0.3-0.2,0.6-0.2,0.9-0.2c0.3,0,0.6,0.1,0.8,0.2c0.2,0.2,0.4,0.4,0.5,0.7l7.9,19C283.5,192.9,283.6,193.1,283.6,193.3z
		 M270.4,186.3h7.2l-3.6-8.7L270.4,186.3z M304.4,175.3c0,0.4-0.1,0.7-0.4,1c-0.2,0.3-0.6,0.5-1,0.5c-0.3,0-0.6-0.1-0.8-0.2
		c-1.3-0.7-2.7-1.1-4.2-1.1c-1.6,0-2.9,0.3-4.1,1s-2.1,1.6-2.8,2.9c-0.7,1.2-1,2.6-1,4.2c0,1.7,0.3,3.2,1,4.4
		c0.7,1.2,1.6,2.2,2.8,2.8c1.2,0.7,2.6,1,4,1c1.5,0,2.9-0.4,4.2-1.1c0.2-0.1,0.5-0.2,0.8-0.2c0.5,0,0.8,0.2,1.1,0.5
		c0.2,0.3,0.4,0.6,0.4,1c0,0.2-0.1,0.5-0.2,0.7c-0.1,0.2-0.3,0.4-0.5,0.5c-0.8,0.5-1.7,0.8-2.7,1.1c-1,0.3-2,0.4-3,0.4
		c-2,0-3.9-0.4-5.6-1.3s-3-2.2-4-3.9c-1-1.7-1.5-3.7-1.5-6c0-2.1,0.5-4,1.4-5.7c1-1.7,2.3-3,4-4c1.7-1,3.6-1.4,5.7-1.4
		c2,0,3.9,0.5,5.7,1.5C304.1,174.4,304.4,174.8,304.4,175.3z M322.6,192.1c0.3,0.3,0.4,0.6,0.4,1.1c0,0.4-0.1,0.8-0.4,1
		c-0.3,0.3-0.6,0.4-1.1,0.4H311c-0.4,0-0.8-0.1-1.1-0.4c-0.3-0.3-0.4-0.6-0.4-1.1v-18.8c0-0.4,0.1-0.8,0.4-1.1
		c0.3-0.3,0.7-0.4,1.1-0.4c0.4,0,0.8,0.1,1.1,0.4c0.3,0.3,0.5,0.6,0.5,1.1v17.4h8.9C322,191.7,322.3,191.8,322.6,192.1z
		 M341.6,192.2c0.3,0.3,0.4,0.6,0.4,1c0,0.4-0.1,0.8-0.4,1c-0.3,0.3-0.6,0.4-1.1,0.4h-10.8c-0.4,0-0.8-0.1-1.1-0.4
		c-0.3-0.3-0.4-0.6-0.4-1.1v-18.8c0-0.4,0.1-0.8,0.4-1.1c0.3-0.3,0.6-0.4,1.1-0.4h10.8c0.4,0,0.8,0.1,1.1,0.4
		c0.3,0.3,0.4,0.6,0.4,1.1c0,0.4-0.1,0.8-0.4,1c-0.3,0.3-0.6,0.4-1.1,0.4h-9.2v6.3h7.8c0.4,0,0.8,0.1,1.1,0.4c0.3,0.3,0.4,0.6,0.4,1
		c0,0.4-0.1,0.8-0.4,1c-0.3,0.2-0.6,0.4-1.1,0.4h-7.8v6.9h9.2C340.9,191.7,341.3,191.9,341.6,192.2z"/>
	<linearGradient id="XMLID_5_" gradientUnits="userSpaceOnUse" x1="147.9919" y1="140.8745" x2="147.9919" y2="140.8745">
		<stop  offset="0" style="stop-color:#3C275A"/>
		<stop  offset="7.735384e-02" style="stop-color:#4A275A"/>
		<stop  offset="0.3778" style="stop-color:#7A2559"/>
		<stop  offset="0.6426" style="stop-color:#9D2458"/>
		<stop  offset="0.859" style="stop-color:#B22358"/>
		<stop  offset="1" style="stop-color:#BA2358"/>
	</linearGradient>
	<path id="XMLID_29_" class="st2" d="M148,140.9"/>
	<linearGradient id="XMLID_6_" gradientUnits="userSpaceOnUse" x1="310.8151" y1="219.0755" x2="310.8151" y2="219.0755">
		<stop  offset="0" style="stop-color:#3C275A"/>
		<stop  offset="7.735384e-02" style="stop-color:#4A275A"/>
		<stop  offset="0.3778" style="stop-color:#7A2559"/>
		<stop  offset="0.6426" style="stop-color:#9D2458"/>
		<stop  offset="0.859" style="stop-color:#B22358"/>
		<stop  offset="1" style="stop-color:#BA2358"/>
	</linearGradient>
	<path id="XMLID_28_" class="st3" d="M310.8,219.1"/>
	<linearGradient id="XMLID_7_" gradientUnits="userSpaceOnUse" x1="33.6083" y1="168.8192" x2="430.2459" y2="168.8192">
		<stop  offset="0" style="stop-color:#3C275A"/>
		<stop  offset="7.735384e-02" style="stop-color:#4A275A"/>
		<stop  offset="0.3778" style="stop-color:#7A2559"/>
		<stop  offset="0.6426" style="stop-color:#9D2458"/>
		<stop  offset="0.859" style="stop-color:#B22358"/>
		<stop  offset="1" style="stop-color:#BA2358"/>
	</linearGradient>
	<path id="XMLID_10_" class="st4" d="M313.9,212.6c-13.8,31.9-45.6,54.2-82.5,54.2c-49.6,0-89.9-40.2-89.9-89.9
		c0-12.8,2.7-25,7.5-36.1c13.9-31.7,45.5-53.8,82.3-53.8c21.2,0,40.8,7.4,56.1,19.7 M98.6,115.7l49.4,25.2 M148,140.9 M98.6,115.7
		 M291.8,63.6l-16.2,35.3 M190,281.4l9-20.4 M311.1,219.4l58,25.2 M34.1,82.9l30.3,15.5 M393.8,254.9l36,15.5 M174.7,315.2l7.6-16.9
		 M199.3,260.4 M310.7,22.5L303,39.3 M275.2,99.6"/>
</g>
</svg>
