<?xml version="1.0" encoding="utf-8"?>
<!-- Generator: Adobe Illustrator 19.0.0, SVG Export Plug-In . SVG Version: 6.00 Build 0)  -->
<svg version="1.1" id="Calque_1" xmlns="http://www.w3.org/2000/svg" xmlns:xlink="http://www.w3.org/1999/xlink" x="0px" y="0px"
	 viewBox="0 0 161 53" style="enable-background:new 0 0 161 53;" xml:space="preserve">
<style type="text/css">
	.st0{fill:none;stroke:#E5294C;stroke-width:1.4719;stroke-miterlimit:10;}
	.st1{fill:url(#XMLID_61_);}
</style>
<path id="XMLID_60_" class="st0" d="M106.5,41.8"/>
<path id="XMLID_59_" class="st0" d="M106.5,41.8"/>
<linearGradient id="XMLID_61_" gradientUnits="userSpaceOnUse" x1="0.1469" y1="26.2627" x2="160.8531" y2="26.2627">
	<stop  offset="0" style="stop-color:#3C275A"/>
	<stop  offset="7.735384e-02" style="stop-color:#4A275A"/>
	<stop  offset="0.3778" style="stop-color:#7A2559"/>
	<stop  offset="0.6426" style="stop-color:#9D2458"/>
	<stop  offset="0.859" style="stop-color:#B22358"/>
	<stop  offset="1" style="stop-color:#BA2358"/>
</linearGradient>
<path id="XMLID_2_" class="st1" d="M23.3,9.3c0.1,0.1,0.1,0.2,0.1,0.3c0,0.1,0,0.2-0.1,0.3C23.2,9.9,23.1,10,23,10h-4.8
	c-0.1,0-0.2,0-0.3-0.1c-0.1-0.1-0.1-0.2-0.1-0.3V0.9c0-0.1,0-0.2,0.1-0.3c0.1-0.1,0.2-0.1,0.3-0.1c0.1,0,0.2,0,0.3,0.1
	c0.1,0.1,0.1,0.2,0.1,0.3v8.3H23C23.1,9.2,23.2,9.2,23.3,9.3z M31.4,3.1c0.1,0.1,0.1,0.2,0.1,0.3v6.1c0,0.1,0,0.2-0.1,0.3
	c-0.1,0.1-0.2,0.1-0.3,0.1c-0.1,0-0.2,0-0.3-0.1c-0.1-0.1-0.1-0.2-0.1-0.3V8.6c-0.2,0.4-0.6,0.8-1,1c-0.5,0.3-0.9,0.4-1.5,0.4
	c-0.6,0-1.1-0.2-1.6-0.5c-0.5-0.3-0.9-0.7-1.1-1.3C25.1,7.8,25,7.1,25,6.5s0.1-1.3,0.4-1.9c0.3-0.5,0.7-1,1.1-1.3
	c0.5-0.3,1-0.5,1.6-0.5c0.5,0,1,0.1,1.5,0.4c0.5,0.3,0.8,0.6,1,1V3.4c0-0.1,0-0.2,0.1-0.3C30.9,3.1,31,3,31.1,3
	C31.2,3,31.3,3.1,31.4,3.1z M29.5,9c0.4-0.2,0.7-0.6,0.9-1s0.3-0.9,0.3-1.5c0-0.5-0.1-1-0.3-1.4c-0.2-0.4-0.5-0.8-0.9-1
	c-0.4-0.2-0.8-0.4-1.3-0.4c-0.5,0-0.9,0.1-1.3,0.4c-0.4,0.2-0.7,0.6-0.9,1c-0.2,0.4-0.3,0.9-0.3,1.5c0,0.5,0.1,1,0.3,1.5
	c0.2,0.4,0.5,0.8,0.9,1c0.4,0.2,0.8,0.4,1.3,0.4C28.7,9.3,29.1,9.2,29.5,9z M26.3,15.8c0.7,0.4,1.2,1,1.6,1.7
	c0.4,0.7,0.6,1.5,0.6,2.4c0,0.9-0.2,1.7-0.6,2.4c-0.4,0.7-0.9,1.3-1.6,1.8c-0.7,0.4-1.4,0.6-2.2,0.6h-4.2v4.9c0,0.3-0.1,0.6-0.3,0.8
	c-0.2,0.2-0.4,0.3-0.7,0.3c-0.3,0-0.6-0.1-0.7-0.3c-0.2-0.2-0.3-0.5-0.3-0.8V16.2c0-0.3,0.1-0.6,0.3-0.8c0.2-0.2,0.5-0.3,0.8-0.3
	h5.2C24.9,15.2,25.7,15.4,26.3,15.8z M25.3,22.4c0.3-0.3,0.6-0.6,0.8-1c0.2-0.4,0.3-0.9,0.3-1.4c0-0.8-0.2-1.4-0.7-1.9
	c-0.4-0.5-1-0.8-1.6-0.8h-4.2v5.5h4.2C24.5,22.8,24.9,22.6,25.3,22.4z M41.8,29c0.2,0.2,0.3,0.4,0.3,0.8c0,0.3-0.1,0.5-0.3,0.7
	c-0.2,0.2-0.5,0.3-0.8,0.3h-7.6c-0.3,0-0.6-0.1-0.8-0.3c-0.2-0.2-0.3-0.5-0.3-0.8V16.2c0-0.3,0.1-0.6,0.3-0.8
	c0.2-0.2,0.5-0.3,0.8-0.3c0.3,0,0.6,0.1,0.8,0.3c0.2,0.2,0.3,0.5,0.3,0.8v12.5h6.4C41.4,28.7,41.6,28.8,41.8,29z M57.9,29.9
	c0,0.3-0.1,0.5-0.3,0.7c-0.2,0.2-0.4,0.3-0.7,0.3c-0.2,0-0.4-0.1-0.6-0.2c-0.2-0.1-0.3-0.3-0.4-0.5l-1.4-3.3h-6.9l-1.4,3.3
	c-0.1,0.2-0.2,0.4-0.4,0.5c-0.2,0.1-0.4,0.2-0.6,0.2c-0.3,0-0.6-0.1-0.7-0.2c-0.2-0.2-0.2-0.4-0.2-0.7c0-0.1,0-0.2,0-0.4l5.7-13.8
	c0.1-0.2,0.2-0.4,0.4-0.5s0.4-0.2,0.6-0.1c0.2,0,0.4,0.1,0.6,0.2c0.2,0.1,0.3,0.3,0.4,0.5l5.7,13.6C57.9,29.6,57.9,29.7,57.9,29.9z
	 M48.5,24.8h5.2l-2.6-6.3L48.5,24.8z M72.9,17c0,0.3-0.1,0.5-0.3,0.7c-0.2,0.2-0.4,0.4-0.7,0.4c-0.2,0-0.4-0.1-0.6-0.2
	c-0.9-0.5-1.9-0.8-3-0.8c-1.1,0-2.1,0.2-3,0.7s-1.5,1.2-2,2.1c-0.5,0.9-0.7,1.9-0.7,3.1c0,1.2,0.2,2.3,0.7,3.2c0.5,0.9,1.2,1.6,2,2
	c0.9,0.5,1.8,0.7,2.9,0.7c1.1,0,2.1-0.3,3-0.8c0.2-0.1,0.4-0.1,0.6-0.1c0.3,0,0.6,0.1,0.8,0.4c0.2,0.2,0.3,0.5,0.3,0.7
	c0,0.2,0,0.3-0.1,0.5c-0.1,0.2-0.2,0.3-0.4,0.4c-0.6,0.3-1.2,0.6-2,0.8C69.7,30.9,69,31,68.3,31c-1.4,0-2.8-0.3-4-1
	c-1.2-0.6-2.2-1.6-2.9-2.8c-0.7-1.2-1.1-2.7-1.1-4.3c0-1.5,0.3-2.9,1-4.1c0.7-1.2,1.6-2.2,2.9-2.9c1.2-0.7,2.6-1,4.1-1
	c1.4,0,2.8,0.4,4.1,1.1C72.7,16.3,72.9,16.6,72.9,17z M86.2,29.1c0.2,0.2,0.3,0.5,0.3,0.7c0,0.3-0.1,0.5-0.3,0.7
	c-0.2,0.2-0.5,0.3-0.8,0.3h-7.8c-0.3,0-0.6-0.1-0.8-0.3c-0.2-0.2-0.3-0.5-0.3-0.8V16.2c0-0.3,0.1-0.6,0.3-0.8
	c0.2-0.2,0.5-0.3,0.8-0.3h7.8c0.3,0,0.6,0.1,0.8,0.3c0.2,0.2,0.3,0.4,0.3,0.8c0,0.3-0.1,0.5-0.3,0.7c-0.2,0.2-0.5,0.3-0.8,0.3h-6.6
	v4.6h5.6c0.3,0,0.6,0.1,0.8,0.3c0.2,0.2,0.3,0.4,0.3,0.7c0,0.3-0.1,0.6-0.3,0.7c-0.2,0.2-0.5,0.3-0.8,0.3h-5.6v4.9h6.6
	C85.8,28.8,86,28.9,86.2,29.1z M97.5,20.9c0.1,0.1,0.1,0.2,0.1,0.3v9.2c0,0.1,0,0.2-0.1,0.3c-0.1,0.1-0.2,0.1-0.3,0.1
	s-0.2,0-0.3-0.1c-0.1-0.1-0.1-0.2-0.1-0.3v-0.9c-0.2,0.4-0.6,0.8-1,1.1c-0.4,0.3-0.9,0.4-1.5,0.4c-0.6,0-1.1-0.2-1.6-0.5
	s-0.9-0.7-1.1-1.3c-0.3-0.6-0.4-1.2-0.4-1.9c0-0.7,0.1-1.3,0.4-1.8c0.3-0.6,0.7-1,1.1-1.3c0.5-0.3,1-0.5,1.6-0.5
	c0.5,0,1,0.1,1.5,0.4c0.5,0.3,0.8,0.6,1,1v-4c0-0.1,0-0.2,0.1-0.3c0.1-0.1,0.2-0.1,0.3-0.1S97.5,20.8,97.5,20.9z M95.7,29.8
	c0.4-0.2,0.7-0.6,0.9-1c0.2-0.4,0.3-0.9,0.3-1.5c0-0.5-0.1-1-0.3-1.5c-0.2-0.4-0.5-0.8-0.9-1c-0.4-0.2-0.8-0.4-1.3-0.4
	c-0.5,0-0.9,0.1-1.3,0.4c-0.4,0.2-0.7,0.6-0.9,1c-0.2,0.4-0.3,0.9-0.3,1.5c0,0.5,0.1,1,0.3,1.5c0.2,0.4,0.5,0.8,0.9,1
	c0.4,0.2,0.8,0.4,1.3,0.4C94.9,30.2,95.3,30.1,95.7,29.8z M106.1,24c0.1,0.1,0.1,0.2,0.1,0.3v3.8c0,0.9-0.2,1.6-0.7,2
	s-1.2,0.7-2.1,0.7c-0.9,0-1.5-0.2-2-0.7c-0.5-0.5-0.7-1.2-0.7-2v-3.8c0-0.1,0-0.2,0.1-0.3c0.1-0.1,0.2-0.1,0.3-0.1
	c0.1,0,0.2,0,0.3,0.1c0.1,0.1,0.1,0.2,0.1,0.3v3.8c0,0.7,0.2,1.1,0.5,1.5c0.3,0.3,0.8,0.5,1.5,0.5c0.6,0,1.1-0.2,1.5-0.5
	c0.3-0.3,0.5-0.8,0.5-1.5v-3.8c0-0.1,0-0.2,0.1-0.3c0.1-0.1,0.2-0.1,0.3-0.1C106,23.9,106.1,24,106.1,24z M130.8,51.8
	c-0.1-0.1-0.1-0.2-0.1-0.4v-0.3c0-0.2,0-0.3,0.1-0.4s0.2-0.1,0.4-0.1h0.1c0.2,0,0.3,0,0.4,0.1c0.1,0.1,0.1,0.2,0.1,0.4v0.3
	c0,0.2,0,0.3-0.1,0.4c-0.1,0.1-0.2,0.1-0.4,0.1h-0.1C131,51.9,130.9,51.9,130.8,51.8z M138.4,45c0.4,0.1,0.7,0.2,0.9,0.4
	c0.2,0.2,0.3,0.3,0.3,0.5c0,0.1,0,0.2-0.1,0.3c-0.1,0.1-0.2,0.1-0.3,0.1c-0.1,0-0.2,0-0.2-0.1c-0.1,0-0.1-0.1-0.2-0.2
	c-0.1-0.1-0.2-0.2-0.3-0.3c-0.1-0.1-0.3-0.1-0.5-0.2c-0.2,0-0.5-0.1-0.7-0.1c-0.5,0-1,0.1-1.4,0.4c-0.4,0.3-0.7,0.6-1,1
	c-0.2,0.4-0.4,0.9-0.4,1.4c0,0.5,0.1,1,0.3,1.5c0.2,0.4,0.5,0.8,0.9,1c0.4,0.2,0.9,0.4,1.4,0.4c0.3,0,0.6,0,0.8-0.1
	c0.2-0.1,0.4-0.1,0.6-0.2c0.1,0,0.2-0.1,0.3-0.2c0.1-0.1,0.1-0.1,0.2-0.1c0.1,0,0.1,0,0.2,0c0.1,0,0.2,0,0.3,0.1
	c0.1,0.1,0.1,0.2,0.1,0.3c0,0.2-0.1,0.3-0.3,0.5c-0.2,0.2-0.5,0.3-0.9,0.5c-0.4,0.1-0.8,0.2-1.3,0.2c-0.7,0-1.2-0.2-1.8-0.5
	c-0.5-0.3-0.9-0.7-1.2-1.3c-0.3-0.6-0.4-1.2-0.4-1.9c0-0.7,0.1-1.3,0.4-1.8c0.3-0.5,0.7-1,1.2-1.3c0.5-0.3,1.1-0.5,1.8-0.5
	C137.6,44.8,138,44.9,138.4,45z M147.8,50.3c-0.3,0.6-0.7,1-1.2,1.3c-0.5,0.3-1.1,0.5-1.7,0.5c-0.6,0-1.2-0.2-1.7-0.5
	c-0.5-0.3-0.9-0.7-1.2-1.3c-0.3-0.6-0.4-1.2-0.4-1.8c0-0.7,0.1-1.3,0.4-1.8c0.3-0.6,0.7-1,1.2-1.3c0.5-0.3,1.1-0.5,1.7-0.5
	c0.6,0,1.2,0.2,1.7,0.5c0.5,0.3,0.9,0.8,1.2,1.3c0.3,0.6,0.4,1.2,0.4,1.8C148.3,49.1,148.1,49.8,147.8,50.3z M147.1,47
	c-0.2-0.4-0.5-0.8-0.9-1c-0.4-0.2-0.8-0.4-1.3-0.4c-0.5,0-0.9,0.1-1.3,0.4c-0.4,0.2-0.7,0.6-0.9,1c-0.2,0.4-0.3,0.9-0.3,1.5
	c0,0.5,0.1,1,0.3,1.5c0.2,0.4,0.5,0.8,0.9,1c0.4,0.2,0.8,0.4,1.3,0.4c0.5,0,0.9-0.1,1.3-0.4c0.4-0.2,0.7-0.6,0.9-1
	c0.2-0.4,0.3-0.9,0.3-1.5C147.5,47.9,147.3,47.4,147.1,47z M160.3,45.7c0.4,0.5,0.6,1.2,0.6,2v3.8c0,0.1,0,0.2-0.1,0.3
	c-0.1,0.1-0.2,0.1-0.3,0.1c-0.1,0-0.2,0-0.3-0.1c-0.1-0.1-0.1-0.2-0.1-0.3v-3.8c0-0.6-0.1-1.1-0.4-1.5c-0.3-0.4-0.7-0.6-1.3-0.6
	c-0.4,0-0.7,0.1-1.1,0.3c-0.3,0.2-0.6,0.4-0.8,0.7c-0.2,0.3-0.3,0.6-0.3,1v3.8c0,0.1,0,0.2-0.1,0.3c-0.1,0.1-0.2,0.1-0.3,0.1
	c-0.1,0-0.2,0-0.3-0.1c-0.1-0.1-0.1-0.2-0.1-0.3v-3.8c0-0.6-0.1-1.1-0.4-1.4c-0.3-0.4-0.7-0.5-1.3-0.5c-0.4,0-0.7,0.1-1.1,0.3
	c-0.3,0.2-0.6,0.4-0.8,0.7c-0.2,0.3-0.3,0.6-0.3,1v3.8c0,0.1,0,0.2-0.1,0.3c-0.1,0.1-0.2,0.1-0.3,0.1s-0.2,0-0.3-0.1
	c-0.1-0.1-0.1-0.2-0.1-0.3v-6.1c0-0.1,0-0.2,0.1-0.3c0.1-0.1,0.2-0.1,0.3-0.1s0.2,0,0.3,0.1c0.1,0.1,0.1,0.2,0.1,0.3v0.8
	c0.2-0.4,0.6-0.7,1-0.9c0.4-0.2,0.9-0.4,1.3-0.4c0.5,0,1,0.1,1.4,0.4c0.4,0.3,0.7,0.6,0.8,1.1c0.2-0.4,0.5-0.7,1-1
	c0.5-0.3,1-0.4,1.5-0.4C159.3,44.9,159.9,45.2,160.3,45.7z M3,51.6c-0.8-0.3-1.6-0.8-2.4-1.5c-0.3-0.3-0.5-0.6-0.5-0.9
	c0-0.3,0.1-0.5,0.3-0.7c0.2-0.2,0.5-0.3,0.7-0.3c0.3,0,0.5,0.1,0.6,0.2c0.6,0.6,1.2,1,1.8,1.2C4.3,49.9,5,50,5.9,50
	c0.9,0,1.7-0.2,2.4-0.6c0.6-0.4,1-1,1-1.6c0-0.8-0.3-1.4-1-1.8c-0.6-0.4-1.6-0.8-2.9-1.1c-1.5-0.3-2.7-0.8-3.5-1.5
	c-0.8-0.7-1.2-1.7-1.2-3c0-0.9,0.2-1.7,0.7-2.3c0.5-0.7,1.1-1.2,1.9-1.5C4,36.1,4.9,36,5.9,36c0.9,0,1.8,0.1,2.6,0.4
	c0.8,0.3,1.5,0.7,2,1.2c0.3,0.3,0.5,0.6,0.5,1c0,0.3-0.1,0.5-0.3,0.7c-0.2,0.2-0.4,0.3-0.7,0.3c-0.2,0-0.4-0.1-0.5-0.2
	c-0.4-0.4-0.9-0.7-1.6-1c-0.7-0.3-1.3-0.4-2-0.4c-1,0-1.8,0.2-2.4,0.6c-0.6,0.4-0.9,1-0.9,1.6c0,0.7,0.3,1.3,0.9,1.7
	c0.6,0.4,1.5,0.7,2.6,1c1.2,0.3,2.1,0.6,2.9,0.9c0.7,0.3,1.3,0.8,1.7,1.4c0.4,0.6,0.6,1.4,0.6,2.4c0,0.9-0.2,1.6-0.7,2.3
	c-0.5,0.7-1.1,1.2-2,1.6c-0.8,0.4-1.8,0.6-2.8,0.6C4.8,52.1,3.8,51.9,3,51.6z M23.8,36.8c0.7,0.4,1.2,1,1.6,1.7
	c0.4,0.7,0.6,1.5,0.6,2.4c0,0.9-0.2,1.7-0.6,2.4c-0.4,0.7-0.9,1.3-1.6,1.8c-0.7,0.4-1.4,0.6-2.2,0.6h-4.2v4.9c0,0.3-0.1,0.6-0.3,0.8
	c-0.2,0.2-0.4,0.3-0.7,0.3c-0.3,0-0.6-0.1-0.7-0.3c-0.2-0.2-0.3-0.5-0.3-0.8V37.3c0-0.3,0.1-0.6,0.3-0.8c0.2-0.2,0.5-0.3,0.8-0.3
	h5.2C22.4,36.2,23.1,36.4,23.8,36.8z M22.7,43.4c0.3-0.3,0.6-0.6,0.8-1c0.2-0.4,0.3-0.9,0.3-1.4c0-0.8-0.2-1.4-0.7-1.9
	c-0.4-0.5-1-0.8-1.6-0.8h-4.2v5.5h4.2C22,43.8,22.3,43.7,22.7,43.4z M39.5,50.1c0.2,0.2,0.3,0.5,0.3,0.7c0,0.3-0.1,0.5-0.3,0.7
	c-0.2,0.2-0.5,0.3-0.8,0.3h-7.8c-0.3,0-0.6-0.1-0.8-0.3c-0.2-0.2-0.3-0.5-0.3-0.8V37.3c0-0.3,0.1-0.6,0.3-0.8
	c0.2-0.2,0.5-0.3,0.8-0.3h7.8c0.3,0,0.6,0.1,0.8,0.3c0.2,0.2,0.3,0.4,0.3,0.8c0,0.3-0.1,0.5-0.3,0.7c-0.2,0.2-0.5,0.3-0.8,0.3h-6.6
	v4.6h5.6c0.3,0,0.6,0.1,0.8,0.3c0.2,0.2,0.3,0.4,0.3,0.7c0,0.3-0.1,0.6-0.3,0.7c-0.2,0.2-0.5,0.3-0.8,0.3h-5.6v4.9h6.6
	C39,49.8,39.3,49.9,39.5,50.1z M55.4,38c0,0.3-0.1,0.5-0.3,0.7c-0.2,0.2-0.4,0.4-0.7,0.4c-0.2,0-0.4-0.1-0.6-0.2
	c-0.9-0.5-1.9-0.8-3-0.8c-1.1,0-2.1,0.2-3,0.7c-0.9,0.5-1.5,1.2-2,2.1c-0.5,0.9-0.7,1.9-0.7,3.1c0,1.2,0.2,2.3,0.7,3.2
	c0.5,0.9,1.2,1.6,2,2c0.9,0.5,1.8,0.7,2.9,0.7c1.1,0,2.1-0.3,3-0.8c0.2-0.1,0.4-0.1,0.6-0.1c0.3,0,0.6,0.1,0.8,0.4
	c0.2,0.2,0.3,0.5,0.3,0.7c0,0.2,0,0.3-0.1,0.5c-0.1,0.2-0.2,0.3-0.4,0.4c-0.6,0.3-1.2,0.6-2,0.8c-0.7,0.2-1.4,0.3-2.1,0.3
	c-1.4,0-2.8-0.3-4-1c-1.2-0.6-2.2-1.6-2.9-2.8c-0.7-1.2-1.1-2.7-1.1-4.3c0-1.5,0.3-2.9,1-4.1c0.7-1.2,1.6-2.2,2.9-2.9
	c1.2-0.7,2.6-1,4.1-1c1.4,0,2.8,0.4,4.1,1.1C55.2,37.3,55.4,37.6,55.4,38z M70,36.5c0.2,0.2,0.3,0.4,0.3,0.7s-0.1,0.6-0.3,0.7
	c-0.2,0.2-0.5,0.3-0.8,0.3h-4v12.6c0,0.3-0.1,0.6-0.3,0.8c-0.2,0.2-0.5,0.3-0.8,0.3c-0.3,0-0.6-0.1-0.8-0.3
	c-0.2-0.2-0.3-0.5-0.3-0.8V38.2h-4c-0.3,0-0.6-0.1-0.8-0.3c-0.2-0.2-0.3-0.4-0.3-0.7c0-0.3,0.1-0.5,0.3-0.7c0.2-0.2,0.5-0.3,0.8-0.3
	h10.2C69.6,36.2,69.8,36.3,70,36.5z M85,50.9c0,0.3-0.1,0.5-0.3,0.7c-0.2,0.2-0.4,0.3-0.7,0.3c-0.2,0-0.4-0.1-0.6-0.2
	c-0.2-0.1-0.3-0.3-0.4-0.5l-1.4-3.3h-6.9l-1.4,3.3c-0.1,0.2-0.2,0.4-0.4,0.5c-0.2,0.1-0.4,0.2-0.6,0.2c-0.3,0-0.6-0.1-0.7-0.2
	c-0.2-0.2-0.2-0.4-0.2-0.7c0-0.1,0-0.2,0-0.4l5.7-13.8c0.1-0.2,0.2-0.4,0.4-0.5c0.2-0.1,0.4-0.2,0.6-0.1c0.2,0,0.4,0.1,0.6,0.2
	c0.2,0.1,0.3,0.3,0.4,0.5L85,50.5C85,50.6,85,50.7,85,50.9z M75.6,45.9h5.2l-2.6-6.3L75.6,45.9z M100,38c0,0.3-0.1,0.5-0.3,0.7
	c-0.2,0.2-0.4,0.4-0.7,0.4c-0.2,0-0.4-0.1-0.6-0.2c-0.9-0.5-1.9-0.8-3-0.8c-1.1,0-2.1,0.2-3,0.7c-0.9,0.5-1.5,1.2-2,2.1
	c-0.5,0.9-0.7,1.9-0.7,3.1c0,1.2,0.2,2.3,0.7,3.2c0.5,0.9,1.2,1.6,2,2c0.9,0.5,1.8,0.7,2.9,0.7c1.1,0,2.1-0.3,3-0.8
	c0.2-0.1,0.4-0.1,0.6-0.1c0.3,0,0.6,0.1,0.8,0.4c0.2,0.2,0.3,0.5,0.3,0.7c0,0.2,0,0.3-0.1,0.5c-0.1,0.2-0.2,0.3-0.4,0.4
	c-0.6,0.3-1.2,0.6-2,0.8c-0.7,0.2-1.4,0.3-2.1,0.3c-1.4,0-2.8-0.3-4-1c-1.2-0.6-2.2-1.6-2.9-2.8c-0.7-1.2-1.1-2.7-1.1-4.3
	c0-1.5,0.3-2.9,1-4.1c0.7-1.2,1.6-2.2,2.9-2.9c1.2-0.7,2.6-1,4.1-1c1.4,0,2.8,0.4,4.1,1.1C99.8,37.3,100,37.6,100,38z M113.1,50.1
	c0.2,0.2,0.3,0.4,0.3,0.8c0,0.3-0.1,0.5-0.3,0.7c-0.2,0.2-0.5,0.3-0.8,0.3h-7.6c-0.3,0-0.6-0.1-0.8-0.3c-0.2-0.2-0.3-0.5-0.3-0.8
	V37.3c0-0.3,0.1-0.6,0.3-0.8c0.2-0.2,0.5-0.3,0.8-0.3c0.3,0,0.6,0.1,0.8,0.3c0.2,0.2,0.3,0.5,0.3,0.8v12.5h6.4
	C112.6,49.8,112.9,49.9,113.1,50.1z M126.7,50.1c0.2,0.2,0.3,0.5,0.3,0.7c0,0.3-0.1,0.5-0.3,0.7c-0.2,0.2-0.5,0.3-0.8,0.3h-7.8
	c-0.3,0-0.6-0.1-0.8-0.3c-0.2-0.2-0.3-0.5-0.3-0.8V37.3c0-0.3,0.1-0.6,0.3-0.8c0.2-0.2,0.5-0.3,0.8-0.3h7.8c0.3,0,0.6,0.1,0.8,0.3
	c0.2,0.2,0.3,0.4,0.3,0.8c0,0.3-0.1,0.5-0.3,0.7c-0.2,0.2-0.5,0.3-0.8,0.3h-6.6v4.6h5.6c0.3,0,0.6,0.1,0.8,0.3
	c0.2,0.2,0.3,0.4,0.3,0.7c0,0.3-0.1,0.6-0.3,0.7c-0.2,0.2-0.5,0.3-0.8,0.3h-5.6v4.9h6.6C126.3,49.8,126.5,49.9,126.7,50.1z"/>
</svg>
