<?xml version="1.0" encoding="utf-8"?>
<!-- Generator: Adobe Illustrator 19.0.0, SVG Export Plug-In . SVG Version: 6.00 Build 0)  -->
<svg version="1.1" id="Calque_1" xmlns="http://www.w3.org/2000/svg" xmlns:xlink="http://www.w3.org/1999/xlink" x="0px" y="0px"
	 viewBox="0 0 138 45" style="enable-background:new 0 0 138 45;" xml:space="preserve">
<style type="text/css">
	.st0{fill:none;stroke:#E5294C;stroke-width:1.2596;stroke-miterlimit:10;}
	.st1{fill:url(#XMLID_61_);}
</style>
<path id="XMLID_60_" class="st0" d="M91.3,35.8"/>
<path id="XMLID_59_" class="st0" d="M91.3,35.8"/>
<linearGradient id="XMLID_61_" gradientUnits="userSpaceOnUse" x1="0.2202" y1="22.5" x2="137.7441" y2="22.5">
	<stop  offset="0" style="stop-color:#3C275A"/>
	<stop  offset="7.735384e-02" style="stop-color:#4A275A"/>
	<stop  offset="0.3778" style="stop-color:#7A2559"/>
	<stop  offset="0.6426" style="stop-color:#9D2458"/>
	<stop  offset="0.859" style="stop-color:#B22358"/>
	<stop  offset="1" style="stop-color:#BA2358"/>
</linearGradient>
<path id="XMLID_2_" class="st1" d="M20,7.9c0.1,0.1,0.1,0.1,0.1,0.2c0,0.1,0,0.2-0.1,0.2c-0.1,0.1-0.1,0.1-0.2,0.1h-4.1
	c-0.1,0-0.2,0-0.2-0.1c-0.1-0.1-0.1-0.1-0.1-0.2V0.8c0-0.1,0-0.2,0.1-0.2s0.2-0.1,0.3-0.1c0.1,0,0.2,0,0.3,0.1S16,0.7,16,0.8v7.1
	h3.8C19.9,7.9,20,7.9,20,7.9z M26.9,2.7C27,2.8,27,2.9,27,3v5.2c0,0.1,0,0.2-0.1,0.2c-0.1,0.1-0.1,0.1-0.2,0.1c-0.1,0-0.2,0-0.2-0.1
	c-0.1-0.1-0.1-0.1-0.1-0.2V7.4c-0.2,0.3-0.5,0.6-0.9,0.9c-0.4,0.2-0.8,0.4-1.3,0.4c-0.5,0-1-0.1-1.4-0.4c-0.4-0.3-0.7-0.6-1-1.1
	s-0.4-1-0.4-1.6s0.1-1.1,0.4-1.6c0.2-0.5,0.6-0.8,1-1.1c0.4-0.3,0.9-0.4,1.4-0.4c0.5,0,0.9,0.1,1.3,0.3c0.4,0.2,0.7,0.5,0.9,0.9V3
	c0-0.1,0-0.2,0.1-0.3c0.1-0.1,0.1-0.1,0.2-0.1C26.8,2.6,26.9,2.6,26.9,2.7z M25.4,7.7c0.3-0.2,0.6-0.5,0.8-0.9s0.3-0.8,0.3-1.3
	c0-0.4-0.1-0.9-0.3-1.2s-0.4-0.7-0.8-0.9c-0.3-0.2-0.7-0.3-1.1-0.3c-0.4,0-0.8,0.1-1.1,0.3c-0.3,0.2-0.6,0.5-0.8,0.9
	s-0.3,0.8-0.3,1.2c0,0.5,0.1,0.9,0.3,1.3c0.2,0.4,0.4,0.7,0.7,0.9C23.5,7.9,23.9,8,24.3,8C24.7,8,25,7.9,25.4,7.7z M22.6,13.5
	c0.6,0.4,1,0.9,1.4,1.5c0.3,0.6,0.5,1.3,0.5,2.1c0,0.8-0.2,1.4-0.5,2.1c-0.3,0.6-0.8,1.1-1.4,1.5c-0.6,0.4-1.2,0.6-1.9,0.6h-3.6v4.2
	c0,0.3-0.1,0.5-0.2,0.7c-0.2,0.2-0.4,0.3-0.6,0.3c-0.3,0-0.5-0.1-0.6-0.3c-0.2-0.2-0.2-0.4-0.2-0.7V13.9c0-0.3,0.1-0.5,0.3-0.7
	c0.2-0.2,0.4-0.3,0.7-0.3h4.4C21.4,13,22.1,13.2,22.6,13.5z M21.7,19.2c0.3-0.2,0.5-0.5,0.7-0.9c0.2-0.4,0.3-0.8,0.3-1.2
	c0-0.7-0.2-1.2-0.6-1.7c-0.4-0.5-0.8-0.7-1.3-0.7h-3.6v4.7h3.6C21.1,19.5,21.4,19.4,21.7,19.2z M35.9,24.9c0.2,0.2,0.3,0.4,0.3,0.7
	c0,0.3-0.1,0.5-0.3,0.6c-0.2,0.2-0.4,0.2-0.7,0.2h-6.5c-0.3,0-0.5-0.1-0.7-0.3c-0.2-0.2-0.3-0.4-0.3-0.7V13.9c0-0.3,0.1-0.5,0.3-0.7
	c0.2-0.2,0.4-0.3,0.7-0.3c0.3,0,0.5,0.1,0.7,0.3c0.2,0.2,0.3,0.4,0.3,0.7v10.7h5.5C35.5,24.6,35.7,24.7,35.9,24.9z M49.7,25.6
	c0,0.3-0.1,0.5-0.3,0.6c-0.2,0.2-0.4,0.2-0.6,0.2c-0.2,0-0.3-0.1-0.5-0.2c-0.1-0.1-0.3-0.3-0.4-0.4L46.8,23h-5.9l-1.2,2.8
	c-0.1,0.2-0.2,0.3-0.3,0.4c-0.1,0.1-0.3,0.2-0.5,0.2c-0.3,0-0.5-0.1-0.6-0.2c-0.1-0.1-0.2-0.3-0.2-0.6c0-0.1,0-0.2,0-0.3L43,13.5
	c0.1-0.2,0.2-0.4,0.4-0.5s0.3-0.2,0.5-0.1c0.2,0,0.4,0.1,0.5,0.2c0.2,0.1,0.3,0.2,0.3,0.4l4.9,11.7C49.7,25.3,49.7,25.4,49.7,25.6z
	 M41.6,21.3h4.5l-2.2-5.4L41.6,21.3z M62.5,14.5c0,0.2-0.1,0.4-0.2,0.6c-0.2,0.2-0.4,0.3-0.6,0.3c-0.2,0-0.4,0-0.5-0.1
	c-0.8-0.4-1.6-0.7-2.6-0.7c-1,0-1.8,0.2-2.5,0.6c-0.7,0.4-1.3,1-1.7,1.8c-0.4,0.8-0.6,1.6-0.6,2.6c0,1.1,0.2,2,0.6,2.7
	c0.4,0.8,1,1.3,1.7,1.8c0.7,0.4,1.6,0.6,2.5,0.6c0.9,0,1.8-0.2,2.6-0.7c0.2-0.1,0.3-0.1,0.5-0.1c0.3,0,0.5,0.1,0.7,0.3
	c0.2,0.2,0.2,0.4,0.2,0.6c0,0.2,0,0.3-0.1,0.4c-0.1,0.1-0.2,0.2-0.3,0.3c-0.5,0.3-1.1,0.5-1.7,0.7c-0.6,0.2-1.2,0.2-1.8,0.2
	c-1.2,0-2.4-0.3-3.4-0.8c-1-0.5-1.9-1.3-2.5-2.4c-0.6-1-0.9-2.3-0.9-3.7c0-1.3,0.3-2.5,0.9-3.5c0.6-1,1.4-1.9,2.5-2.5
	c1-0.6,2.2-0.9,3.5-0.9c1.2,0,2.4,0.3,3.5,0.9C62.3,13.9,62.5,14.2,62.5,14.5z M73.9,24.9c0.2,0.2,0.3,0.4,0.3,0.6
	c0,0.3-0.1,0.5-0.3,0.6c-0.2,0.2-0.4,0.2-0.7,0.2h-6.7c-0.3,0-0.5-0.1-0.7-0.3c-0.2-0.2-0.3-0.4-0.3-0.7V13.9c0-0.3,0.1-0.5,0.3-0.7
	c0.2-0.2,0.4-0.3,0.7-0.3h6.7c0.3,0,0.5,0.1,0.7,0.2c0.2,0.2,0.3,0.4,0.3,0.7c0,0.3-0.1,0.5-0.3,0.6c-0.2,0.2-0.4,0.2-0.7,0.2h-5.7
	v3.9h4.8c0.3,0,0.5,0.1,0.7,0.2c0.2,0.2,0.3,0.4,0.3,0.6c0,0.3-0.1,0.5-0.3,0.6c-0.2,0.2-0.4,0.2-0.7,0.2h-4.8v4.2h5.7
	C73.5,24.6,73.7,24.7,73.9,24.9z M83.6,17.9c0.1,0.1,0.1,0.1,0.1,0.3V26c0,0.1,0,0.2-0.1,0.2c-0.1,0.1-0.1,0.1-0.2,0.1
	s-0.2,0-0.2-0.1C83,26.2,83,26.1,83,26v-0.8c-0.2,0.4-0.5,0.7-0.9,0.9c-0.4,0.2-0.8,0.4-1.3,0.4c-0.5,0-1-0.1-1.4-0.4
	c-0.4-0.3-0.7-0.6-1-1.1c-0.2-0.5-0.4-1-0.4-1.6c0-0.6,0.1-1.1,0.4-1.6c0.2-0.5,0.6-0.8,1-1.1c0.4-0.3,0.9-0.4,1.4-0.4
	c0.5,0,0.9,0.1,1.3,0.3c0.4,0.2,0.7,0.5,0.9,0.9v-3.4c0-0.1,0-0.2,0.1-0.3c0.1-0.1,0.1-0.1,0.2-0.1S83.5,17.8,83.6,17.9z M82,25.6
	c0.3-0.2,0.6-0.5,0.8-0.9s0.3-0.8,0.3-1.3c0-0.5-0.1-0.9-0.3-1.2s-0.4-0.7-0.8-0.9c-0.3-0.2-0.7-0.3-1.1-0.3c-0.4,0-0.8,0.1-1.1,0.3
	c-0.3,0.2-0.6,0.5-0.8,0.9s-0.3,0.8-0.3,1.2c0,0.5,0.1,0.9,0.3,1.3c0.2,0.4,0.4,0.7,0.8,0.9c0.3,0.2,0.7,0.3,1.1,0.3
	C81.3,25.9,81.7,25.8,82,25.6z M90.9,20.6c0.1,0.1,0.1,0.1,0.1,0.2v3.3c0,0.8-0.2,1.3-0.6,1.7c-0.4,0.4-1,0.6-1.8,0.6
	c-0.7,0-1.3-0.2-1.7-0.6c-0.4-0.4-0.6-1-0.6-1.7v-3.3c0-0.1,0-0.2,0.1-0.2c0.1-0.1,0.1-0.1,0.2-0.1s0.2,0,0.2,0.1
	c0.1,0.1,0.1,0.1,0.1,0.2v3.3c0,0.6,0.1,1,0.4,1.3c0.3,0.3,0.7,0.4,1.2,0.4c0.5,0,1-0.1,1.3-0.4c0.3-0.3,0.4-0.7,0.4-1.3v-3.3
	c0-0.1,0-0.2,0.1-0.2c0.1-0.1,0.1-0.1,0.2-0.1C90.8,20.5,90.9,20.5,90.9,20.6z M112.1,44.3c-0.1-0.1-0.1-0.2-0.1-0.3v-0.2
	c0-0.1,0-0.2,0.1-0.3c0.1-0.1,0.2-0.1,0.3-0.1h0.1c0.1,0,0.2,0,0.3,0.1c0.1,0.1,0.1,0.2,0.1,0.3V44c0,0.1,0,0.2-0.1,0.3
	c-0.1,0.1-0.2,0.1-0.3,0.1h-0.1C112.2,44.5,112.1,44.4,112.1,44.3z M118.5,38.5c0.3,0.1,0.6,0.2,0.8,0.3c0.2,0.1,0.3,0.3,0.3,0.5
	c0,0.1,0,0.2-0.1,0.2c-0.1,0.1-0.1,0.1-0.2,0.1c-0.1,0-0.1,0-0.2,0c-0.1,0-0.1-0.1-0.2-0.1c-0.1-0.1-0.2-0.2-0.3-0.2
	c-0.1-0.1-0.3-0.1-0.5-0.1c-0.2,0-0.4-0.1-0.6-0.1c-0.4,0-0.8,0.1-1.2,0.3c-0.4,0.2-0.6,0.5-0.8,0.9c-0.2,0.4-0.3,0.8-0.3,1.2
	c0,0.5,0.1,0.9,0.3,1.3c0.2,0.4,0.5,0.7,0.8,0.9c0.3,0.2,0.7,0.3,1.2,0.3c0.3,0,0.5,0,0.7-0.1c0.2,0,0.3-0.1,0.5-0.2
	c0.1,0,0.1-0.1,0.3-0.2c0.1-0.1,0.1-0.1,0.2-0.1c0,0,0.1,0,0.2,0c0.1,0,0.2,0,0.2,0.1c0.1,0.1,0.1,0.1,0.1,0.2
	c0,0.1-0.1,0.3-0.3,0.4c-0.2,0.2-0.4,0.3-0.8,0.4c-0.3,0.1-0.7,0.2-1.1,0.2c-0.6,0-1.1-0.1-1.5-0.4c-0.4-0.3-0.8-0.6-1-1.1
	c-0.2-0.5-0.4-1-0.4-1.6c0-0.6,0.1-1.1,0.4-1.5c0.2-0.5,0.6-0.8,1-1.1c0.4-0.3,1-0.4,1.5-0.4C117.9,38.4,118.2,38.4,118.5,38.5z
	 M126.6,43.1c-0.3,0.5-0.6,0.8-1.1,1.1c-0.4,0.3-0.9,0.4-1.5,0.4c-0.5,0-1-0.1-1.5-0.4s-0.8-0.6-1.1-1.1c-0.3-0.5-0.4-1-0.4-1.6
	c0-0.6,0.1-1.1,0.4-1.6c0.3-0.5,0.6-0.8,1.1-1.1s0.9-0.4,1.5-0.4c0.5,0,1,0.1,1.5,0.4c0.4,0.3,0.8,0.6,1.1,1.1
	c0.3,0.5,0.4,1,0.4,1.6C127,42.1,126.8,42.6,126.6,43.1z M126,40.2c-0.2-0.4-0.5-0.7-0.8-0.9c-0.3-0.2-0.7-0.3-1.1-0.3
	c-0.4,0-0.8,0.1-1.1,0.3c-0.3,0.2-0.6,0.5-0.8,0.9c-0.2,0.4-0.3,0.8-0.3,1.3c0,0.5,0.1,0.9,0.3,1.2c0.2,0.4,0.5,0.7,0.8,0.9
	c0.3,0.2,0.7,0.3,1.1,0.3c0.4,0,0.8-0.1,1.1-0.3c0.3-0.2,0.6-0.5,0.8-0.9c0.2-0.4,0.3-0.8,0.3-1.3C126.3,41,126.2,40.6,126,40.2z
	 M137.3,39.1c0.3,0.4,0.5,1,0.5,1.7v3.3c0,0.1,0,0.2-0.1,0.2c-0.1,0.1-0.1,0.1-0.2,0.1c-0.1,0-0.2,0-0.3-0.1
	c-0.1-0.1-0.1-0.1-0.1-0.2v-3.2c0-0.5-0.1-0.9-0.4-1.2c-0.2-0.3-0.6-0.5-1.1-0.5c-0.3,0-0.6,0.1-0.9,0.2c-0.3,0.2-0.5,0.4-0.7,0.6
	c-0.2,0.3-0.3,0.6-0.3,0.9v3.2c0,0.1,0,0.2-0.1,0.2c-0.1,0.1-0.1,0.1-0.3,0.1c-0.1,0-0.2,0-0.2-0.1c-0.1-0.1-0.1-0.1-0.1-0.2v-3.3
	c0-0.5-0.1-0.9-0.3-1.2c-0.2-0.3-0.6-0.5-1.1-0.5c-0.3,0-0.6,0.1-0.9,0.2c-0.3,0.2-0.5,0.4-0.7,0.6c-0.2,0.3-0.3,0.5-0.3,0.8v3.3
	c0,0.1,0,0.2-0.1,0.2c-0.1,0.1-0.1,0.1-0.2,0.1c-0.1,0-0.2,0-0.2-0.1c-0.1-0.1-0.1-0.1-0.1-0.2v-5.2c0-0.1,0-0.2,0.1-0.2
	c0.1-0.1,0.1-0.1,0.2-0.1c0.1,0,0.2,0,0.2,0.1c0.1,0.1,0.1,0.1,0.1,0.2v0.7c0.2-0.3,0.5-0.6,0.8-0.8s0.7-0.3,1.1-0.3
	c0.4,0,0.8,0.1,1.2,0.3c0.3,0.2,0.6,0.5,0.7,1c0.2-0.3,0.5-0.6,0.9-0.9c0.4-0.3,0.9-0.4,1.3-0.4C136.4,38.5,136.9,38.7,137.3,39.1z
	 M2.7,44.2c-0.7-0.3-1.4-0.7-2-1.3c-0.3-0.2-0.4-0.5-0.4-0.8c0-0.2,0.1-0.4,0.3-0.6c0.2-0.2,0.4-0.3,0.6-0.3c0.2,0,0.4,0.1,0.6,0.2
	c0.5,0.5,1,0.8,1.6,1c0.5,0.2,1.2,0.3,1.8,0.3c0.8,0,1.5-0.2,2-0.6C7.7,41.9,8,41.4,8,40.9c0-0.7-0.3-1.2-0.8-1.5
	c-0.5-0.4-1.4-0.7-2.5-0.9c-1.3-0.3-2.3-0.7-3-1.3c-0.7-0.6-1.1-1.5-1.1-2.5c0-0.8,0.2-1.4,0.6-2s0.9-1,1.6-1.3
	c0.7-0.3,1.5-0.5,2.4-0.5c0.8,0,1.5,0.1,2.2,0.4c0.7,0.3,1.3,0.6,1.7,1c0.3,0.3,0.4,0.5,0.4,0.8c0,0.2-0.1,0.4-0.3,0.6
	c-0.2,0.2-0.4,0.3-0.6,0.3c-0.2,0-0.3-0.1-0.4-0.2c-0.3-0.3-0.8-0.6-1.4-0.8c-0.6-0.2-1.1-0.3-1.7-0.3c-0.9,0-1.5,0.2-2,0.5
	c-0.5,0.4-0.8,0.8-0.8,1.4c0,0.6,0.3,1.1,0.8,1.4c0.5,0.3,1.3,0.6,2.2,0.8c1,0.2,1.8,0.5,2.4,0.8c0.6,0.3,1.1,0.7,1.5,1.2
	c0.3,0.5,0.5,1.2,0.5,2c0,0.7-0.2,1.4-0.6,2s-1,1-1.7,1.3c-0.7,0.3-1.5,0.5-2.4,0.5C4.2,44.6,3.4,44.5,2.7,44.2z M20.4,31.5
	c0.6,0.4,1,0.9,1.4,1.5c0.3,0.6,0.5,1.3,0.5,2.1c0,0.8-0.2,1.4-0.5,2.1c-0.3,0.6-0.8,1.1-1.4,1.5c-0.6,0.4-1.2,0.6-1.9,0.6h-3.6v4.2
	c0,0.3-0.1,0.5-0.2,0.7c-0.2,0.2-0.4,0.3-0.6,0.3c-0.3,0-0.5-0.1-0.6-0.3c-0.2-0.2-0.2-0.4-0.2-0.7V31.9c0-0.3,0.1-0.5,0.3-0.7
	c0.2-0.2,0.4-0.3,0.7-0.3h4.4C19.2,31,19.8,31.2,20.4,31.5z M19.5,37.2c0.3-0.2,0.5-0.5,0.7-0.9c0.2-0.4,0.3-0.8,0.3-1.2
	c0-0.7-0.2-1.2-0.6-1.7c-0.4-0.5-0.8-0.7-1.3-0.7h-3.6v4.7h3.6C18.9,37.5,19.2,37.4,19.5,37.2z M33.9,42.9c0.2,0.2,0.3,0.4,0.3,0.6
	c0,0.3-0.1,0.5-0.3,0.6c-0.2,0.2-0.4,0.2-0.7,0.2h-6.7c-0.3,0-0.5-0.1-0.7-0.3c-0.2-0.2-0.3-0.4-0.3-0.7V31.9c0-0.3,0.1-0.5,0.3-0.7
	c0.2-0.2,0.4-0.3,0.7-0.3h6.7c0.3,0,0.5,0.1,0.7,0.2c0.2,0.2,0.3,0.4,0.3,0.7c0,0.3-0.1,0.5-0.3,0.6c-0.2,0.2-0.4,0.2-0.7,0.2h-5.7
	v3.9h4.8c0.3,0,0.5,0.1,0.7,0.2c0.2,0.2,0.3,0.4,0.3,0.6c0,0.3-0.1,0.5-0.3,0.6c-0.2,0.2-0.4,0.2-0.7,0.2h-4.8v4.2h5.7
	C33.5,42.6,33.7,42.7,33.9,42.9z M47.5,32.5c0,0.2-0.1,0.4-0.2,0.6c-0.2,0.2-0.4,0.3-0.6,0.3c-0.2,0-0.4,0-0.5-0.1
	c-0.8-0.4-1.6-0.7-2.6-0.7c-1,0-1.8,0.2-2.5,0.6c-0.7,0.4-1.3,1-1.7,1.8c-0.4,0.8-0.6,1.6-0.6,2.6c0,1.1,0.2,2,0.6,2.7
	c0.4,0.8,1,1.3,1.7,1.8c0.7,0.4,1.6,0.6,2.5,0.6c0.9,0,1.8-0.2,2.6-0.7c0.2-0.1,0.3-0.1,0.5-0.1c0.3,0,0.5,0.1,0.7,0.3
	c0.2,0.2,0.2,0.4,0.2,0.6c0,0.2,0,0.3-0.1,0.4c-0.1,0.1-0.2,0.2-0.3,0.3c-0.5,0.3-1.1,0.5-1.7,0.7c-0.6,0.2-1.2,0.2-1.8,0.2
	c-1.2,0-2.4-0.3-3.4-0.8c-1-0.5-1.9-1.3-2.5-2.4c-0.6-1-0.9-2.3-0.9-3.7c0-1.3,0.3-2.5,0.9-3.5c0.6-1,1.4-1.9,2.5-2.5
	c1-0.6,2.2-0.9,3.5-0.9c1.2,0,2.4,0.3,3.5,0.9C47.4,31.9,47.5,32.2,47.5,32.5z M60,31.2c0.2,0.2,0.3,0.4,0.3,0.6s-0.1,0.5-0.3,0.6
	c-0.2,0.2-0.4,0.2-0.7,0.2H56v10.7c0,0.3-0.1,0.5-0.3,0.7c-0.2,0.2-0.4,0.3-0.7,0.3c-0.3,0-0.5-0.1-0.7-0.3
	c-0.2-0.2-0.3-0.4-0.3-0.7V32.7h-3.4c-0.3,0-0.5-0.1-0.7-0.2s-0.3-0.4-0.3-0.6c0-0.3,0.1-0.5,0.3-0.6c0.2-0.2,0.4-0.2,0.7-0.2h8.8
	C59.6,31,59.9,31.1,60,31.2z M72.8,43.6c0,0.3-0.1,0.5-0.3,0.6c-0.2,0.2-0.4,0.2-0.6,0.2c-0.2,0-0.3-0.1-0.5-0.2
	c-0.1-0.1-0.3-0.3-0.4-0.4L70,41H64l-1.2,2.8c-0.1,0.2-0.2,0.3-0.3,0.4c-0.1,0.1-0.3,0.2-0.5,0.2c-0.3,0-0.5-0.1-0.6-0.2
	c-0.1-0.1-0.2-0.3-0.2-0.6c0-0.1,0-0.2,0-0.3l4.9-11.8c0.1-0.2,0.2-0.4,0.4-0.5s0.3-0.2,0.5-0.1c0.2,0,0.4,0.1,0.5,0.2
	c0.2,0.1,0.3,0.2,0.3,0.4l4.9,11.7C72.8,43.3,72.8,43.4,72.8,43.6z M64.8,39.3h4.5L67,33.9L64.8,39.3z M85.7,32.5
	c0,0.2-0.1,0.4-0.2,0.6c-0.2,0.2-0.4,0.3-0.6,0.3c-0.2,0-0.4,0-0.5-0.1c-0.8-0.4-1.6-0.7-2.6-0.7c-1,0-1.8,0.2-2.5,0.6
	c-0.7,0.4-1.3,1-1.7,1.8c-0.4,0.8-0.6,1.6-0.6,2.6c0,1.1,0.2,2,0.6,2.7c0.4,0.8,1,1.3,1.7,1.8c0.7,0.4,1.6,0.6,2.5,0.6
	c0.9,0,1.8-0.2,2.6-0.7c0.2-0.1,0.3-0.1,0.5-0.1c0.3,0,0.5,0.1,0.7,0.3c0.2,0.2,0.2,0.4,0.2,0.6c0,0.2,0,0.3-0.1,0.4
	c-0.1,0.1-0.2,0.2-0.3,0.3c-0.5,0.3-1.1,0.5-1.7,0.7c-0.6,0.2-1.2,0.2-1.8,0.2c-1.2,0-2.4-0.3-3.4-0.8c-1-0.5-1.9-1.3-2.5-2.4
	c-0.6-1-0.9-2.3-0.9-3.7c0-1.3,0.3-2.5,0.9-3.5c0.6-1,1.4-1.9,2.5-2.5c1-0.6,2.2-0.9,3.5-0.9c1.2,0,2.4,0.3,3.5,0.9
	C85.5,31.9,85.7,32.2,85.7,32.5z M96.9,42.9c0.2,0.2,0.3,0.4,0.3,0.7c0,0.3-0.1,0.5-0.3,0.6c-0.2,0.2-0.4,0.2-0.7,0.2h-6.5
	c-0.3,0-0.5-0.1-0.7-0.3c-0.2-0.2-0.3-0.4-0.3-0.7V31.9c0-0.3,0.1-0.5,0.3-0.7c0.2-0.2,0.4-0.3,0.7-0.3c0.3,0,0.5,0.1,0.7,0.3
	c0.2,0.2,0.3,0.4,0.3,0.7v10.7h5.5C96.5,42.6,96.7,42.7,96.9,42.9z M108.6,42.9c0.2,0.2,0.3,0.4,0.3,0.6c0,0.3-0.1,0.5-0.3,0.6
	c-0.2,0.2-0.4,0.2-0.7,0.2h-6.7c-0.3,0-0.5-0.1-0.7-0.3c-0.2-0.2-0.3-0.4-0.3-0.7V31.9c0-0.3,0.1-0.5,0.3-0.7
	c0.2-0.2,0.4-0.3,0.7-0.3h6.7c0.3,0,0.5,0.1,0.7,0.2c0.2,0.2,0.3,0.4,0.3,0.7c0,0.3-0.1,0.5-0.3,0.6c-0.2,0.2-0.4,0.2-0.7,0.2h-5.7
	v3.9h4.8c0.3,0,0.5,0.1,0.7,0.2c0.2,0.2,0.3,0.4,0.3,0.6c0,0.3-0.1,0.5-0.3,0.6c-0.2,0.2-0.4,0.2-0.7,0.2h-4.8v4.2h5.7
	C108.2,42.6,108.4,42.7,108.6,42.9z"/>
</svg>
