<?xml version="1.0" encoding="utf-8"?>
<!-- Generator: Adobe Illustrator 19.0.0, SVG Export Plug-In . SVG Version: 6.00 Build 0)  -->
<svg version="1.1" id="Calque_1" xmlns="http://www.w3.org/2000/svg" xmlns:xlink="http://www.w3.org/1999/xlink" x="0px" y="0px"
	 viewBox="0 0 33 31" style="enable-background:new 0 0 33 31;" xml:space="preserve">
<style type="text/css">
	.st0{fill:none;stroke:#8D1B3D;stroke-width:2.0239;stroke-miterlimit:10;}
</style>
<g id="XMLID_18_">
	<path id="XMLID_23_" class="st0" d="M16.5,1.1c-5.9,0-10.6,4.8-10.6,10.6c0,1.5,0.3,3,0.9,4.3c2.7,5.8,7.7,11.9,9.2,13.7
		c0.1,0.1,0.3,0.2,0.4,0.2c0.2,0,0.3-0.1,0.4-0.2c1.5-1.7,6.6-7.9,9.2-13.7c0.6-1.3,0.9-2.8,0.9-4.3C27.1,5.8,22.4,1.1,16.5,1.1
		L16.5,1.1z M16.5,17.2c-3,0-5.5-2.5-5.5-5.5c0-3,2.5-5.5,5.5-5.5c3,0,5.5,2.5,5.5,5.5C22,14.7,19.5,17.2,16.5,17.2L16.5,17.2z
		 M16.5,17.2"/>
</g>
</svg>
