<?xml version="1.0" encoding="utf-8"?>
<!-- Generator: Adobe Illustrator 19.0.0, SVG Export Plug-In . SVG Version: 6.00 Build 0)  -->
<svg version="1.1" id="Calque_1" xmlns="http://www.w3.org/2000/svg" xmlns:xlink="http://www.w3.org/1999/xlink" x="0px" y="0px"
	 viewBox="0 0 33 31" style="enable-background:new 0 0 33 31;" xml:space="preserve">
<style type="text/css">
	.st0{fill:none;stroke:#8D1B3D;stroke-width:2.0239;stroke-miterlimit:10;}
</style>
<g id="XMLID_9_">
	<path id="XMLID_1_" class="st0" d="M31.2,12.3c0-0.4-0.3-0.7-1-0.8l-8.9-1.3l-4-8c-0.2-0.5-0.5-0.7-0.9-0.7c-0.4,0-0.6,0.2-0.9,0.7
		l-4,8l-8.9,1.3c-0.7,0.1-1,0.4-1,0.8c0,0.2,0.1,0.5,0.4,0.8l6.4,6.3l-1.5,8.8c0,0.2,0,0.3,0,0.4c0,0.2,0.1,0.5,0.2,0.6
		c0.1,0.2,0.3,0.3,0.6,0.3c0.2,0,0.4-0.1,0.7-0.2l7.9-4.2l7.9,4.2c0.2,0.1,0.5,0.2,0.7,0.2c0.2,0,0.4-0.1,0.5-0.3
		c0.1-0.2,0.2-0.4,0.2-0.6c0-0.2,0-0.3,0-0.4l-1.5-8.8l6.4-6.3C31.1,12.9,31.2,12.6,31.2,12.3L31.2,12.3z M31.2,12.3"/>
</g>
</svg>
