<?xml version="1.0" encoding="utf-8"?>
<!-- Generator: Adobe Illustrator 19.0.0, SVG Export Plug-In . SVG Version: 6.00 Build 0)  -->
<svg version="1.1" id="Calque_1" xmlns="http://www.w3.org/2000/svg" xmlns:xlink="http://www.w3.org/1999/xlink" x="0px" y="0px"
	 viewBox="0 0 33 31" style="enable-background:new 0 0 33 31;" xml:space="preserve">
<style type="text/css">
	.st0{fill:none;stroke:#8D1B3D;stroke-width:2.0239;stroke-miterlimit:10;}
</style>
<g id="XMLID_20_">
	<g id="XMLID_21_">
		<path id="XMLID_24_" class="st0" d="M30.5,2.5c-0.1-0.1-0.3-0.1-0.5-0.1L2.6,15.2c-0.1,0.1-0.2,0.2-0.2,0.4c0,0.2,0.1,0.3,0.2,0.4
			l7.7,3.8c0.1,0.1,0.3,0.1,0.4,0l7.5-5.6l-5.9,6.1c-0.1,0.1-0.1,0.2-0.1,0.3l0.6,7.7c0,0.2,0.1,0.3,0.3,0.4c0,0,0.1,0,0.1,0
			c0.1,0,0.2-0.1,0.3-0.1l4.1-4.8l5.1,2.4c0.1,0.1,0.2,0.1,0.4,0c0.1,0,0.2-0.1,0.2-0.3L30.6,3C30.6,2.8,30.6,2.7,30.5,2.5L30.5,2.5
			z M30.5,2.5"/>
	</g>
</g>
</svg>
