<?xml version="1.0" encoding="utf-8"?>
<!-- Generator: Adobe Illustrator 19.0.0, SVG Export Plug-In . SVG Version: 6.00 Build 0)  -->
<svg version="1.1" id="Calque_1" xmlns="http://www.w3.org/2000/svg" xmlns:xlink="http://www.w3.org/1999/xlink" x="0px" y="0px"
	 viewBox="0 0 33 31" style="enable-background:new 0 0 33 31;" xml:space="preserve">
<style type="text/css">
	.st0{fill:none;stroke:#8D1B3D;stroke-width:2.0239;stroke-miterlimit:10;}
</style>
<path id="XMLID_29_" class="st0" d="M16.5,20.3c3.9,0,7.1-3.9,7.1-8.6c0-4.8-3.2-8.7-7.1-8.7c-2,0-3.7,0.9-5.1,2.6
	c-1.3,1.6-2.1,3.8-2.1,6.1C9.4,16.4,12.6,20.3,16.5,20.3L16.5,20.3z M11,19.2c-3.9-0.1-7.1,2.8-7.1,6.7c0,1.3,1.2,2.3,2.4,2.3h20.5
	c1.3,0,2.4-1,2.4-2.4 M29.2,25.9c0-3.9-3.2-6.8-7-6.7"/>
</svg>
