<?xml version="1.0" encoding="utf-8"?>
<!-- Generator: Adobe Illustrator 19.0.0, SVG Export Plug-In . SVG Version: 6.00 Build 0)  -->
<svg version="1.1" id="Calque_1" xmlns="http://www.w3.org/2000/svg" xmlns:xlink="http://www.w3.org/1999/xlink" x="0px" y="0px"
	 viewBox="0 0 20 20" style="enable-background:new 0 0 20 20;" xml:space="preserve">
<style type="text/css">
	.st0{fill:none;stroke:#43264E;stroke-width:1.4551;stroke-miterlimit:10;}
</style>
<g id="XMLID_5_">
	<path id="XMLID_1_" class="st0" d="M19.2,8c0-0.3-0.2-0.4-0.6-0.5L13,6.7l-2.5-5c-0.1-0.3-0.3-0.5-0.5-0.5c-0.2,0-0.4,0.2-0.5,0.5
		L7,6.7L1.4,7.5C1,7.6,0.8,7.7,0.8,8c0,0.2,0.1,0.3,0.3,0.5l4,3.9l-1,5.5c0,0.1,0,0.2,0,0.2c0,0.2,0,0.3,0.1,0.4
		c0.1,0.1,0.2,0.2,0.3,0.2c0.1,0,0.3,0,0.4-0.1l5-2.6l5,2.6c0.2,0.1,0.3,0.1,0.4,0.1c0.1,0,0.3-0.1,0.3-0.2c0.1-0.1,0.1-0.2,0.1-0.4
		c0-0.1,0-0.2,0-0.2l-1-5.5l4-3.9C19.1,8.4,19.2,8.2,19.2,8L19.2,8z M19.2,8"/>
</g>
</svg>
