<?xml version="1.0" encoding="utf-8"?>
<!-- Generator: Adobe Illustrator 19.0.0, SVG Export Plug-In . SVG Version: 6.00 Build 0)  -->
<svg version="1.1" id="Calque_1" xmlns="http://www.w3.org/2000/svg" xmlns:xlink="http://www.w3.org/1999/xlink" x="0px" y="0px"
	 viewBox="0 0 27 27" style="enable-background:new 0 0 27 27;" xml:space="preserve">
<style type="text/css">
	.st0{fill:none;stroke:#3C275A;stroke-width:1.371;stroke-miterlimit:10;}
</style>
<path id="XMLID_2_" class="st0" d="M4.6,26.2h17.9c0.5,0,0.9-0.4,1-0.9l2.7-15.2c0.1-0.6-0.4-1.2-1-1.2H1.9c-0.6,0-1.1,0.6-1,1.2
	l2.7,15.2C3.6,25.8,4.1,26.2,4.6,26.2z"/>
<line id="XMLID_5_" class="st0" x1="8" y1="8.9" x2="8" y2="26.2"/>
<line id="XMLID_3_" class="st0" x1="19.1" y1="8.9" x2="19.1" y2="26.2"/>
<line id="XMLID_7_" class="st0" x1="13.5" y1="8.9" x2="13.5" y2="26.2"/>
<path id="XMLID_4_" class="st0" d="M16.9,2.2h3.4c0.6,0,1,0.5,1,1v5.7"/>
<path id="XMLID_1_" class="st0" d="M5.7,8.9V3.2c0-0.6,0.5-1,1-1h3.4"/>
<path id="XMLID_6_" class="st0" d="M15.3,3.3h-3.5c-0.7,0-1.2-0.6-1.2-1.2l0,0c0-0.7,0.6-1.2,1.2-1.2h3.5c0.7,0,1.2,0.6,1.2,1.2l0,0
	C16.5,2.8,16,3.3,15.3,3.3z"/>
</svg>
