<?xml version="1.0" encoding="utf-8"?>
<!-- Generator: Adobe Illustrator 19.0.0, SVG Export Plug-In . SVG Version: 6.00 Build 0)  -->
<svg version="1.1" id="Calque_1" xmlns="http://www.w3.org/2000/svg" xmlns:xlink="http://www.w3.org/1999/xlink" x="0px" y="0px"
	 viewBox="0 0 76 16" style="enable-background:new 0 0 76 16;" xml:space="preserve">
<style type="text/css">
	.st0{fill:#3C275A;}
</style>
<path id="XMLID_3_" class="st0" d="M4.8,8c0-0.4,0.1-0.7,0.3-0.9c0.2-0.2,0.4-0.3,0.7-0.3c0.3,0,0.6,0.1,0.8,0.3
	C6.8,7.3,6.9,7.6,6.9,8c0,0.4-0.1,0.7-0.3,0.9C6.4,9.1,6.1,9.2,5.8,9.2c-0.3,0-0.5-0.1-0.7-0.3C4.9,8.7,4.8,8.4,4.8,8z"/>
<path id="XMLID_5_" class="st0" d="M14,8c0-0.4,0.1-0.7,0.3-0.9c0.2-0.2,0.4-0.3,0.7-0.3c0.3,0,0.6,0.1,0.8,0.3C16,7.3,16,7.6,16,8
	c0,0.4-0.1,0.7-0.3,0.9c-0.2,0.2-0.4,0.3-0.8,0.3c-0.3,0-0.5-0.1-0.7-0.3C14.1,8.7,14,8.4,14,8z"/>
<path id="XMLID_7_" class="st0" d="M23.2,8c0-0.4,0.1-0.7,0.3-0.9c0.2-0.2,0.4-0.3,0.7-0.3c0.3,0,0.6,0.1,0.8,0.3
	c0.2,0.2,0.3,0.5,0.3,0.9c0,0.4-0.1,0.7-0.3,0.9c-0.2,0.2-0.4,0.3-0.8,0.3c-0.3,0-0.5-0.1-0.7-0.3C23.3,8.7,23.2,8.4,23.2,8z"/>
<path id="XMLID_9_" class="st0" d="M32.4,8c0-0.4,0.1-0.7,0.3-0.9s0.4-0.3,0.7-0.3c0.3,0,0.6,0.1,0.8,0.3c0.2,0.2,0.3,0.5,0.3,0.9
	c0,0.4-0.1,0.7-0.3,0.9c-0.2,0.2-0.4,0.3-0.8,0.3c-0.3,0-0.5-0.1-0.7-0.3S32.4,8.4,32.4,8z"/>
<path id="XMLID_11_" class="st0" d="M41.6,8c0-0.4,0.1-0.7,0.3-0.9s0.4-0.3,0.7-0.3c0.3,0,0.6,0.1,0.8,0.3c0.2,0.2,0.3,0.5,0.3,0.9
	c0,0.4-0.1,0.7-0.3,0.9c-0.2,0.2-0.4,0.3-0.8,0.3c-0.3,0-0.5-0.1-0.7-0.3S41.6,8.4,41.6,8z"/>
<path id="XMLID_13_" class="st0" d="M50.8,8c0-0.4,0.1-0.7,0.3-0.9s0.4-0.3,0.7-0.3c0.3,0,0.6,0.1,0.8,0.3c0.2,0.2,0.3,0.5,0.3,0.9
	c0,0.4-0.1,0.7-0.3,0.9c-0.2,0.2-0.4,0.3-0.8,0.3c-0.3,0-0.5-0.1-0.7-0.3S50.8,8.4,50.8,8z"/>
<path id="XMLID_15_" class="st0" d="M60,8c0-0.4,0.1-0.7,0.3-0.9s0.4-0.3,0.7-0.3c0.3,0,0.6,0.1,0.8,0.3C61.9,7.3,62,7.6,62,8
	c0,0.4-0.1,0.7-0.3,0.9c-0.2,0.2-0.4,0.3-0.8,0.3c-0.3,0-0.5-0.1-0.7-0.3S60,8.4,60,8z"/>
<path id="XMLID_1_" class="st0" d="M69.1,8c0-0.4,0.1-0.7,0.3-0.9s0.4-0.3,0.7-0.3c0.3,0,0.6,0.1,0.8,0.3c0.2,0.2,0.3,0.5,0.3,0.9
	c0,0.4-0.1,0.7-0.3,0.9c-0.2,0.2-0.4,0.3-0.8,0.3c-0.3,0-0.5-0.1-0.7-0.3S69.1,8.4,69.1,8z"/>
</svg>
