<?xml version="1.0" encoding="utf-8"?>
<!-- Generator: Adobe Illustrator 19.0.0, SVG Export Plug-In . SVG Version: 6.00 Build 0)  -->
<svg version="1.1" id="Calque_1" xmlns="http://www.w3.org/2000/svg" xmlns:xlink="http://www.w3.org/1999/xlink" x="0px" y="0px"
	 viewBox="0 0 66 16" style="enable-background:new 0 0 66 16;" xml:space="preserve">
<style type="text/css">
	.st0{fill:#3C275A;}
</style>
<g id="XMLID_2_">
	<path id="XMLID_3_" class="st0" d="M4,8.3C4,8,4.1,7.7,4.3,7.5C4.5,7.3,4.7,7.2,5,7.2c0.3,0,0.6,0.1,0.8,0.3C6,7.7,6.1,8,6.1,8.3
		C6.1,8.7,6,9,5.8,9.2C5.6,9.4,5.3,9.5,5,9.5c-0.3,0-0.5-0.1-0.7-0.3C4.1,9,4,8.8,4,8.3z"/>
	<path id="XMLID_5_" class="st0" d="M13.2,8.3c0-0.4,0.1-0.7,0.3-0.9c0.2-0.2,0.4-0.3,0.7-0.3c0.3,0,0.6,0.1,0.8,0.3
		c0.2,0.2,0.3,0.5,0.3,0.9c0,0.4-0.1,0.7-0.3,0.9c-0.2,0.2-0.4,0.3-0.8,0.3c-0.3,0-0.5-0.1-0.7-0.3C13.3,9,13.2,8.8,13.2,8.3z"/>
	<path id="XMLID_7_" class="st0" d="M22.4,8.3c0-0.4,0.1-0.7,0.3-0.9c0.2-0.2,0.4-0.3,0.7-0.3c0.3,0,0.6,0.1,0.8,0.3
		c0.2,0.2,0.3,0.5,0.3,0.9c0,0.4-0.1,0.7-0.3,0.9c-0.2,0.2-0.4,0.3-0.8,0.3c-0.3,0-0.5-0.1-0.7-0.3C22.5,9,22.4,8.8,22.4,8.3z"/>
	<path id="XMLID_9_" class="st0" d="M31.6,8.3c0-0.4,0.1-0.7,0.3-0.9c0.2-0.2,0.4-0.3,0.7-0.3c0.3,0,0.6,0.1,0.8,0.3
		c0.2,0.2,0.3,0.5,0.3,0.9c0,0.4-0.1,0.7-0.3,0.9c-0.2,0.2-0.4,0.3-0.8,0.3c-0.3,0-0.5-0.1-0.7-0.3C31.7,9,31.6,8.8,31.6,8.3z"/>
	<path id="XMLID_11_" class="st0" d="M40.8,8.3c0-0.4,0.1-0.7,0.3-0.9s0.4-0.3,0.7-0.3c0.3,0,0.6,0.1,0.8,0.3
		c0.2,0.2,0.3,0.5,0.3,0.9c0,0.4-0.1,0.7-0.3,0.9c-0.2,0.2-0.4,0.3-0.8,0.3c-0.3,0-0.5-0.1-0.7-0.3S40.8,8.8,40.8,8.3z"/>
	<path id="XMLID_13_" class="st0" d="M50,8.3c0-0.4,0.1-0.7,0.3-0.9s0.4-0.3,0.7-0.3c0.3,0,0.6,0.1,0.8,0.3C51.9,7.7,52,8,52,8.3
		c0,0.4-0.1,0.7-0.3,0.9c-0.2,0.2-0.4,0.3-0.8,0.3c-0.3,0-0.5-0.1-0.7-0.3S50,8.8,50,8.3z"/>
	<path id="XMLID_15_" class="st0" d="M59.2,8.3c0-0.4,0.1-0.7,0.3-0.9s0.4-0.3,0.7-0.3c0.3,0,0.6,0.1,0.8,0.3
		c0.2,0.2,0.3,0.5,0.3,0.9c0,0.4-0.1,0.7-0.3,0.9c-0.2,0.2-0.4,0.3-0.8,0.3c-0.3,0-0.5-0.1-0.7-0.3S59.2,8.8,59.2,8.3z"/>
</g>
</svg>
