<?xml version="1.0" encoding="utf-8"?>
<!-- Generator: Adobe Illustrator 19.0.0, SVG Export Plug-In . SVG Version: 6.00 Build 0)  -->
<svg version="1.1" id="Calque_1" xmlns="http://www.w3.org/2000/svg" xmlns:xlink="http://www.w3.org/1999/xlink" x="0px" y="0px"
	 viewBox="0 0 20 17" style="enable-background:new 0 0 20 17;" xml:space="preserve">
<style type="text/css">
	.st0{fill:#3C275A;}
</style>
<g id="XMLID_6_">
	<g id="XMLID_7_">
		<path id="XMLID_8_" class="st0" d="M19.7,0.7c0-0.2-0.1-0.4-0.2-0.5C19.4,0.1,19.2,0,19,0h-3.1c-0.1,0-0.1,0-0.2,0h-0.6
			c-0.1,0-0.2,0-0.3,0H5.1C5,0,4.9,0,4.8,0H4.3C4.2,0,4.1,0,4.1,0H1C0.8,0,0.6,0.1,0.5,0.2C0.4,0.3,0.3,0.5,0.3,0.7
			c0,0.2,0.1,5.5,3.1,6.2v0c0,0,0,0,0,0.1C3.5,10.3,6,13,9.2,13.3v2.2H6.6c-0.2,0-0.3,0.2-0.3,0.3v0.8c0,0.2,0.2,0.3,0.3,0.3h6.7
			c0.2,0,0.3-0.2,0.3-0.3v-0.8c0-0.2-0.2-0.3-0.3-0.3h-2.6v-2.2c3.1-0.3,5.6-2.9,5.8-6c0-0.1,0.1-0.1,0.1-0.2V6.9
			C19.6,6.3,19.7,0.9,19.7,0.7L19.7,0.7z M3.4,5.4c-1.2-0.6-1.5-2.9-1.6-4h1.6V5.4z M16.6,5.4v-4h1.6C18.1,2.5,17.8,4.8,16.6,5.4
			L16.6,5.4z M16.6,5.4"/>
	</g>
</g>
</svg>
