<?xml version="1.0" encoding="utf-8"?>
<!-- Generator: Adobe Illustrator 19.0.0, SVG Export Plug-In . SVG Version: 6.00 Build 0)  -->
<svg version="1.1" id="Calque_1" xmlns="http://www.w3.org/2000/svg" xmlns:xlink="http://www.w3.org/1999/xlink" x="0px" y="0px"
	 viewBox="-1 2 24 24" style="enable-background:new -1 2 24 24;" xml:space="preserve">
<style type="text/css">
	.st0{fill:none;stroke:#3C275A;stroke-width:1.6434;stroke-miterlimit:10;}
</style>
<path id="XMLID_2_" class="st0" d="M11,18.1c3.4,0,6.2-3.4,6.2-7.5C17.2,6.4,14.4,3,11,3C9.3,3,7.8,3.8,6.6,5.3
	c-1.1,1.4-1.8,3.3-1.8,5.3C4.8,14.7,7.6,18.1,11,18.1L11,18.1z M6.2,17.1C2.8,17,0,19.5,0,22.9C0,24,1,24.9,2.1,24.9h17.8
	c1.1,0,2.1-0.9,2.1-2.1 M22,22.9c0-3.4-2.8-5.9-6.1-5.8 M15.8,16.7"/>
</svg>
