<?xml version="1.0" encoding="utf-8"?>
<!-- Generator: Adobe Illustrator 19.0.0, SVG Export Plug-In . SVG Version: 6.00 Build 0)  -->
<svg version="1.1" id="Calque_1" xmlns="http://www.w3.org/2000/svg" xmlns:xlink="http://www.w3.org/1999/xlink" x="0px" y="0px"
	 viewBox="0 0 24 24" style="enable-background:new 0 0 24 24;" xml:space="preserve">
<style type="text/css">
	.st0{fill:#3C275A;}
	.st1{fill:#1D1E1C;}
	.st2{fill:none;stroke:#000000;stroke-width:14.9357;stroke-miterlimit:10;}
</style>
<g id="XMLID_23_">
	<path id="XMLID_26_" class="st0" d="M23.8,22.1L19.7,18c1.5-1.9,2.4-4.2,2.4-6.8c0-6.1-5-11-11-11c-6.1,0-11,5-11,11
		c0,6.1,5,11,11,11c2.7,0,5.2-1,7.2-2.7l4.1,4.1c0.2,0.2,0.4,0.2,0.5,0.1l1.1-1.1C24.1,22.5,24,22.3,23.8,22.1z M1.5,11.2
		c0-5.3,4.3-9.6,9.6-9.6c5.3,0,9.6,4.3,9.6,9.6c0,5.3-4.3,9.6-9.6,9.6C5.8,20.8,1.5,16.5,1.5,11.2z"/>
	<path id="XMLID_27_" class="st0" d="M18.1,9.5c0-2.8-2.3-5.2-5.2-5.2c-0.4,0-0.7,0.3-0.7,0.7c0,0.4,0.3,0.7,0.7,0.7
		c2,0,3.7,1.7,3.7,3.7c0,0.4,0.3,0.7,0.7,0.7C17.8,10.2,18.1,9.9,18.1,9.5z"/>
</g>
<path id="XMLID_22_" class="st1" d="M164,119.8l83.8,83.3c3.2,3.2,3.8,7.8,1.3,10.3l-20,20.1c-2.5,2.5-7.1,1.9-10.3-1.2l-83.8-83.3
	c-3.2-3.2-3.8-7.8-1.3-10.3l20-20.1C156.1,116.1,160.8,116.6,164,119.8z"/>
<path id="XMLID_16_" class="st2" d="M9.4-193.9c-106.8,0-193.3,86.5-193.3,193.3S-97.3,192.7,9.4,192.7S202.7,106.2,202.7-0.6
	S116.2-193.9,9.4-193.9z"/>
<g id="XMLID_2_">
	<path id="XMLID_9_" d="M7.2-209.5c-114.5,0-207.7,93.2-207.7,207.7s93.2,207.7,207.7,207.7c114.5,0,207.7-93.2,207.7-207.7
		S121.7-209.5,7.2-209.5L7.2-209.5z M7.2,178.1c-99.2,0-180-80.7-180-180s80.7-180,180-180c99.3,0,180,80.7,180,180
		S106.4,178.1,7.2,178.1L7.2,178.1z M7.2,178.1"/>
	<path id="XMLID_3_" d="M43.2-132c-7.6,0-13.8,6.2-13.8,13.9c0,7.6,6.2,13.8,13.8,13.8c38.2,0,69.2,31.1,69.2,69.2
		c0,7.6,6.2,13.8,13.9,13.8s13.8-6.2,13.8-13.8C140.2-88.6,96.7-132,43.2-132L43.2-132z M43.2-132"/>
</g>
</svg>
