<?xml version="1.0" encoding="utf-8"?>
<!-- Generator: Adobe Illustrator 19.0.0, SVG Export Plug-In . SVG Version: 6.00 Build 0)  -->
<svg version="1.1" id="Calque_1" xmlns="http://www.w3.org/2000/svg" xmlns:xlink="http://www.w3.org/1999/xlink" x="0px" y="0px"
	 viewBox="0 0 33 33" style="enable-background:new 0 0 33 33;" xml:space="preserve">
<style type="text/css">
	.st0{fill:none;stroke:#3C275A;stroke-width:1.4651;stroke-miterlimit:10;}
</style>
<g id="XMLID_2_">
	<g id="XMLID_4_">
		<path id="XMLID_5_" class="st0" d="M29.4,28.4c-0.3-0.8-0.7-1.7-1.1-2.5c-0.3-0.7-0.8-1-1.6-0.8c-1,0.2-2,0.5-3,0.8
			c-2,0.4-3.9,0.4-5.9-0.2c-2.4-0.8-3.7-2.5-4.5-4.8h6.6c0.5,0,0.9-0.4,0.9-0.9v-2.1c0-0.5-0.4-0.9-0.9-0.9h-7.2c0-0.6,0-1.1,0-1.7
			h7.2c0.5,0,0.9-0.4,0.9-0.9v-2.1c0-0.5-0.4-0.9-0.9-0.9h-6.3c0,0,0-0.1,0-0.1c0.8-1.7,1.9-3.1,3.7-3.8c2.1-0.8,4.3-0.8,6.5-0.4
			c1,0.2,2,0.5,3.1,0.8C27.5,7.9,28,7.7,28.3,7c0.4-0.8,0.7-1.6,1.1-2.5c0.3-0.8,0.1-1.3-0.6-1.8c-0.2-0.1-0.4-0.2-0.6-0.3
			c-3.1-1.2-6.2-1.6-9.5-1.1c-2.3,0.4-4.4,1.2-6.3,2.6c-2.3,1.8-3.8,4.2-4.7,7l-0.1,0.3H4.4c-0.5,0-0.9,0.4-0.9,0.9v2.1
			c0,0.5,0.4,0.9,0.9,0.9H7v1.7H4.4c-0.5,0-0.9,0.4-0.9,0.9v2.1c0,0.5,0.4,0.9,0.9,0.9h3.1c0.2,0.8,0.4,1.5,0.7,2.3
			c1.6,3.8,4.2,6.5,8.1,7.7c3.3,1.1,6.5,1,9.8,0.1c0.9-0.2,1.7-0.5,2.5-0.9C29.5,29.7,29.7,29.1,29.4,28.4L29.4,28.4z M29.4,28.4"/>
	</g>
</g>
</svg>
