<?xml version="1.0" encoding="utf-8"?>
<!-- Generator: Adobe Illustrator 19.0.0, SVG Export Plug-In . SVG Version: 6.00 Build 0)  -->
<svg version="1.1" id="Calque_1" xmlns="http://www.w3.org/2000/svg" xmlns:xlink="http://www.w3.org/1999/xlink" x="0px" y="0px"
	 viewBox="0 0 33 33" style="enable-background:new 0 0 33 33;" xml:space="preserve">
<style type="text/css">
	.st0{fill:none;stroke:#3C275A;stroke-width:1.4651;stroke-miterlimit:10;}
</style>
<g id="XMLID_11_">
	<path id="XMLID_12_" class="st0" d="M26.6,13.5H26v-2.8c0-5.1-4.1-9.4-9.2-9.5c-0.1,0-0.4,0-0.6,0C11.1,1.3,7,5.6,7,10.7v2.8H6.4
		c-0.9,0.1-1.7,0.9-1.7,2.1v14c0,1.2,0.7,2.1,1.7,2.1h20.1c0.9,0,1.7-1,1.7-2.1v-14C28.2,14.4,27.5,13.5,26.6,13.5L26.6,13.5z
		 M18.4,22.6v4.2c0,0.5-0.4,0.9-0.9,0.9h-2c-0.5,0-0.9-0.4-0.9-0.9v-4.2c-0.5-0.5-0.7-1.1-0.7-1.8c0-1.3,1-2.5,2.3-2.5
		c0.1,0,0.4,0,0.6,0c1.3,0.1,2.3,1.2,2.3,2.5C19.1,21.5,18.9,22.1,18.4,22.6L18.4,22.6z M22,13.5H11v-2.8c0-3.1,2.5-5.6,5.5-5.6
		c3.1,0,5.5,2.5,5.5,5.6V13.5z M22,13.5"/>
</g>
</svg>
