<?xml version="1.0" encoding="utf-8"?>
<!-- Generator: Adobe Illustrator 19.0.0, SVG Export Plug-In . SVG Version: 6.00 Build 0)  -->
<svg version="1.1" id="Calque_1" xmlns="http://www.w3.org/2000/svg" xmlns:xlink="http://www.w3.org/1999/xlink" x="0px" y="0px"
	 viewBox="0 0 33 33" style="enable-background:new 0 0 33 33;" xml:space="preserve">
<style type="text/css">
	.st0{fill:none;stroke:#3C275A;stroke-width:1.4651;stroke-miterlimit:10;}
</style>
<path id="XMLID_2_" class="st0" d="M16.5,22.2c4.7,0,8.5-4.7,8.5-10.3c0-5.8-3.9-10.5-8.5-10.5c-2.3,0-4.4,1.1-6.1,3.2
	C8.9,6.5,8,9.1,8,11.9C8,17.5,11.8,22.2,16.5,22.2L16.5,22.2z M9.9,20.8c-4.7-0.1-8.5,3.3-8.5,8c0,1.5,1.4,2.8,2.9,2.8h24.5
	c1.5,0,2.9-1.2,2.9-2.9 M31.6,28.8c0-4.7-3.9-8.1-8.4-8"/>
</svg>
