<?xml version="1.0" encoding="utf-8"?>
<!-- Generator: Adobe Illustrator 19.0.0, SVG Export Plug-In . SVG Version: 6.00 Build 0)  -->
<svg version="1.1" id="Calque_1" xmlns="http://www.w3.org/2000/svg" xmlns:xlink="http://www.w3.org/1999/xlink" x="0px" y="0px"
	 viewBox="0 0 16 19" style="enable-background:new 0 0 16 19;" xml:space="preserve">
<style type="text/css">
	.st0{fill:#3C275A;}
</style>
<g id="XMLID_9_">
	<g id="XMLID_12_">
		<path id="XMLID_14_" class="st0" d="M15.8,16.8c-0.2-0.5-0.4-1-0.7-1.5c-0.2-0.4-0.5-0.6-1-0.5c-0.6,0.1-1.2,0.3-1.9,0.5
			c-1.2,0.3-2.4,0.3-3.6-0.1c-1.5-0.5-2.3-1.5-2.8-2.9h4c0.3,0,0.6-0.3,0.6-0.6v-1.3c0-0.3-0.3-0.6-0.6-0.6H5.6c0-0.4,0-0.7,0-1H10
			c0.3,0,0.6-0.3,0.6-0.6V6.9c0-0.3-0.3-0.6-0.6-0.6H6.2c0,0,0,0,0,0C6.6,5.3,7.3,4.4,8.4,4c1.3-0.5,2.6-0.5,3.9-0.2
			c0.6,0.1,1.3,0.3,1.9,0.5c0.5,0.1,0.7,0,0.9-0.5c0.2-0.5,0.4-1,0.6-1.5c0.2-0.5,0.1-0.8-0.4-1.1C15.3,1.1,15.2,1,15.1,1
			c-1.9-0.7-3.8-1-5.8-0.7C7.9,0.5,6.6,1,5.5,1.9C4.1,3,3.2,4.4,2.6,6.1L2.6,6.3h-2C0.3,6.3,0,6.6,0,6.9v1.3c0,0.3,0.3,0.6,0.6,0.6
			h1.6v1H0.6C0.3,9.8,0,10.1,0,10.4v1.3c0,0.3,0.3,0.6,0.6,0.6h1.9c0.1,0.5,0.3,0.9,0.4,1.4c1,2.3,2.6,3.9,5,4.7c2,0.6,4,0.6,6,0.1
			c0.5-0.1,1-0.3,1.5-0.6C15.9,17.6,16,17.3,15.8,16.8L15.8,16.8z M15.8,16.8"/>
	</g>
</g>
</svg>
