<?xml version="1.0" encoding="utf-8"?>
<!-- Generator: Adobe Illustrator 19.0.0, SVG Export Plug-In . SVG Version: 6.00 Build 0)  -->
<svg version="1.1" id="Calque_1" xmlns="http://www.w3.org/2000/svg" xmlns:xlink="http://www.w3.org/1999/xlink" x="0px" y="0px"
	 viewBox="0 0 28 28" style="enable-background:new 0 0 28 28;" xml:space="preserve">
<style type="text/css">
	.st0{fill:#B21E4E;}
</style>
<g id="XMLID_26_">
	<g id="XMLID_60_">
		<path id="XMLID_61_" class="st0" d="M26.6,2.8h-2.8c-0.5,0-0.9,0.4-0.9,0.9c0,0.5,0.4,0.9,0.9,0.9h1.9v21.1H2.4V4.7h2.5
			c0.5,0,0.9-0.4,0.9-0.9c0-0.5-0.4-0.9-0.9-0.9H1.4c-0.5,0-0.9,0.4-0.9,0.9v22.9c0,0.5,0.4,0.9,0.9,0.9h25.1c0.5,0,0.9-0.4,0.9-0.9
			V3.8C27.5,3.3,27.1,2.8,26.6,2.8L26.6,2.8z M26.6,2.8"/>
	</g>
	<path id="XMLID_57_" class="st0" d="M15.3,2.8h-2.7c-0.5,0-0.9,0.4-0.9,0.9c0,0.5,0.4,0.9,0.9,0.9h2.7c0.5,0,0.9-0.4,0.9-0.9
		C16.2,3.3,15.8,2.8,15.3,2.8L15.3,2.8z M15.3,2.8"/>
	<path id="XMLID_54_" class="st0" d="M8.3,19.8H6.1c-0.5,0-0.9,0.4-0.9,0.9v1.6c0,0.5,0.4,0.9,0.9,0.9h2.2c0.5,0,0.9-0.4,0.9-0.9
		v-1.6C9.3,20.2,8.9,19.8,8.3,19.8L8.3,19.8z M8.3,19.8"/>
	<path id="XMLID_51_" class="st0" d="M15.1,19.8h-2.4c-0.5,0-0.9,0.4-0.9,0.9v1.6c0,0.5,0.4,0.9,0.9,0.9h2.4c0.5,0,0.9-0.4,0.9-0.9
		v-1.6C16,20.2,15.6,19.8,15.1,19.8L15.1,19.8z M15.1,19.8"/>
	<path id="XMLID_48_" class="st0" d="M9.3,15.6c0-0.5-0.4-0.9-0.9-0.9H6.1c-0.5,0-0.9,0.4-0.9,0.9v1.6c0,0.5,0.4,0.9,0.9,0.9h2.2
		c0.5,0,0.9-0.4,0.9-0.9V15.6z M9.3,15.6"/>
	<path id="XMLID_45_" class="st0" d="M16,15.6c0-0.5-0.4-0.9-0.9-0.9h-2.4c-0.5,0-0.9,0.4-0.9,0.9v1.6c0,0.5,0.4,0.9,0.9,0.9h2.4
		c0.5,0,0.9-0.4,0.9-0.9V15.6z M16,15.6"/>
	<path id="XMLID_42_" class="st0" d="M21.7,14.6h-2.2c-0.5,0-0.9,0.4-0.9,0.9v1.6c0,0.5,0.4,0.9,0.9,0.9h2.2c0.5,0,0.9-0.4,0.9-0.9
		v-1.6C22.6,15.1,22.2,14.6,21.7,14.6L21.7,14.6z M21.7,14.6"/>
	<path id="XMLID_39_" class="st0" d="M5.2,10.2v1.6c0,0.5,0.4,0.9,0.9,0.9h2.2c0.5,0,0.9-0.4,0.9-0.9v-1.6c0-0.5-0.4-0.9-0.9-0.9
		H6.1C5.6,9.3,5.2,9.7,5.2,10.2L5.2,10.2z M5.2,10.2"/>
	<path id="XMLID_36_" class="st0" d="M16,10.2c0-0.5-0.4-0.9-0.9-0.9h-2.4c-0.5,0-0.9,0.4-0.9,0.9v1.6c0,0.5,0.4,0.9,0.9,0.9h2.4
		c0.5,0,0.9-0.4,0.9-0.9V10.2z M16,10.2"/>
	<path id="XMLID_33_" class="st0" d="M22.6,10.2c0-0.5-0.4-0.9-0.9-0.9h-2.2c-0.5,0-0.9,0.4-0.9,0.9v1.6c0,0.5,0.4,0.9,0.9,0.9h2.2
		c0.5,0,0.9-0.4,0.9-0.9V10.2z M22.6,10.2"/>
	<path id="XMLID_30_" class="st0" d="M9,6.6c0.5,0,0.9-0.4,0.9-0.9V1.3c0-0.5-0.4-0.9-0.9-0.9H8c-0.5,0-0.9,0.4-0.9,0.9v4.4
		c0,0.5,0.4,0.9,0.9,0.9H9z M9,6.6"/>
	<path id="XMLID_27_" class="st0" d="M19.8,0.3h-0.9c-0.5,0-0.9,0.4-0.9,0.9v4.4c0,0.5,0.4,0.9,0.9,0.9h0.9c0.5,0,0.9-0.4,0.9-0.9
		V1.3C20.8,0.8,20.3,0.3,19.8,0.3L19.8,0.3z M19.8,0.3"/>
</g>
</svg>
