<?xml version="1.0" encoding="utf-8"?>
<!-- Generator: Adobe Illustrator 19.0.0, SVG Export Plug-In . SVG Version: 6.00 Build 0)  -->
<svg version="1.1" id="Calque_1" xmlns="http://www.w3.org/2000/svg" xmlns:xlink="http://www.w3.org/1999/xlink" x="0px" y="0px"
	 viewBox="0 0 30 30" style="enable-background:new 0 0 30 30;" xml:space="preserve">
<style type="text/css">
	.st0{fill:#3C2345;}
	.st1{fill:#FFFFFF;}
</style>
<g id="XMLID_9_">
	<path id="XMLID_4_" class="st0" d="M15,0.9C6.7,0.9,0.1,7.2,0.1,15c0,3.4,1.3,6.5,3.4,9c0,1.3-0.3,3.3-1.9,4.9
		c2.7,1,5.3-1.1,5.9-1.6c2.2,1.2,4.8,1.9,7.5,1.9c8.3,0,14.9-6.3,14.9-14.1S23.3,0.9,15,0.9z"/>
</g>
<path id="XMLID_3_" class="st1" d="M21.2,11.2H7.9c-0.6,0-1.1-0.5-1.1-1.1v-0.1C6.9,9.5,7.3,9,7.9,9h13.2c0.6,0,1.1,0.5,1.1,1.1v0.1
	C22.2,10.8,21.7,11.2,21.2,11.2z"/>
<path id="XMLID_2_" class="st1" d="M22.5,15.9h-16c-0.6,0-1.1-0.5-1.1-1.1v-0.1c0-0.6,0.5-1.1,1.1-1.1h16c0.6,0,1.1,0.5,1.1,1.1v0.1
	C23.6,15.4,23.1,15.9,22.5,15.9z"/>
<path id="XMLID_1_" class="st1" d="M20.7,20.6H9.5c-0.5,0-1-0.4-1-1v-0.3c0-0.5,0.4-1,1-1h11.2c0.5,0,1,0.4,1,1v0.3
	C21.7,20.1,21.3,20.6,20.7,20.6z"/>
</svg>
